<?xml version="1.0" encoding="UTF-8"?>
<svg xmlns="http://www.w3.org/2000/svg" id="Layer_2" width="309.48" height="270" viewBox="0 0 309.48 270">
  <defs>
    <style>.cls-1,.cls-2{fill:#004aa0;}.cls-1,.cls-3,.cls-4{fill-rule:evenodd;}.cls-5{fill:#fff;}.cls-6{fill:#b5d7ff;}.cls-7{fill:#fb3;}.cls-8{fill:#998675;}.cls-3,.cls-9{fill:#00a251;}.cls-10{fill:#de1b29;}.cls-11{fill:#c7b299;}.cls-4,.cls-12{fill:#002c68;}.cls-13{fill:#b3b3b3;}.cls-14{fill:#404040;}.cls-15{fill:#f2f2f2;}.cls-16{fill:#161e2e;}</style>
  </defs>
  <g id="Layer_1-2">
    <ellipse class="cls-6" cx="140.15" cy="135" rx="140" ry="135"></ellipse>
    <path class="cls-16" d="m268.22,237.66H17.09V49.75c0-10.17,8.24-18.41,18.41-18.41h214.3c10.17,0,18.41,8.24,18.41,18.41v187.91Z"></path>
    <rect class="cls-15" x="17.09" y="67.57" width="251.13" height="160.62"></rect>
    <rect class="cls-13" x="122.87" y="80.12" width="128.11" height="4.86"></rect>
    <rect class="cls-13" x="122.87" y="89.32" width="128.11" height="4.86"></rect>
    <rect class="cls-9" x="122.87" y="133.23" width="60.32" height="25.05"></rect>
    <rect class="cls-10" x="190.73" y="133.23" width="60.32" height="25.05"></rect>
    <rect class="cls-2" x="122.87" y="101.57" width="60.32" height="25.05"></rect>
    <rect class="cls-7" x="190.73" y="101.57" width="60.32" height="25.05"></rect>
    <circle class="cls-10" cx="35.54" cy="50.28" r="4.69"></circle>
    <circle class="cls-7" cx="50.37" cy="50.28" r="4.69"></circle>
    <path class="cls-9" d="m69.89,50.28c0,2.59-2.1,4.69-4.69,4.69s-4.69-2.1-4.69-4.69,2.1-4.69,4.69-4.69,4.69,2.1,4.69,4.69Z"></path>
    <path class="cls-5" d="m250.73,54.6H98.1c-2.39,0-4.33-1.94-4.33-4.33h0c0-2.39,1.94-4.33,4.33-4.33h152.63c2.39,0,4.33,1.94,4.33,4.33h0c0,2.39-1.94,4.33-4.33,4.33Z"></path>
    <path class="cls-2" d="m309.48,110.48v37.88c0,1.33-1.09,2.41-2.42,2.42h-1.73v17.41l-14.75-17.41h-45.06c-1.34,0-2.42-1.07-2.43-2.41h0v-37.89c0-1.34,1.09-2.42,2.43-2.41h61.54c1.33,0,2.41,1.08,2.42,2.41h0Z"></path>
    <path class="cls-5" d="m264.09,129.42c0,3.19-2.59,5.78-5.78,5.78s-5.78-2.59-5.78-5.78,2.59-5.78,5.78-5.78h0c3.19,0,5.78,2.59,5.78,5.78Z"></path>
    <path class="cls-5" d="m282.07,129.42c0,3.2-2.58,5.79-5.78,5.8s-5.79-2.58-5.8-5.78,2.58-5.79,5.78-5.8h0c3.19,0,5.78,2.58,5.79,5.77h0s0,.01,0,.01Z"></path>
    <path class="cls-5" d="m300.04,129.42c0,3.2-2.58,5.79-5.78,5.8s-5.79-2.58-5.8-5.78,2.58-5.79,5.78-5.8h0c3.19,0,5.78,2.58,5.79,5.77h0s0,.01,0,.01Z"></path>
    <path class="cls-12" d="m195.75,77.96v55.56c.01,1.96,1.6,3.55,3.56,3.56h2.57v25.53l21.62-25.53h66.1c1.96,0,3.55-1.6,3.56-3.56v-55.56c0-1.96-1.59-3.54-3.55-3.53h-90.3c-1.95,0-3.54,1.58-3.56,3.53Z"></path>
    <path class="cls-5" d="m262.32,105.74c0,4.69,3.79,8.49,8.48,8.5,4.69,0,8.49-3.79,8.5-8.48,0-4.69-3.79-8.49-8.48-8.5h-.02c-4.68,0-8.47,3.8-8.48,8.48Z"></path>
    <path class="cls-5" d="m235.96,105.74c0,4.69,3.79,8.49,8.48,8.5,4.69,0,8.49-3.79,8.5-8.48,0-4.69-3.79-8.49-8.48-8.5h0c-4.68,0-8.48,3.79-8.49,8.48Z"></path>
    <path class="cls-5" d="m209.61,105.74c0,4.68,3.8,8.48,8.48,8.48s8.48-3.8,8.48-8.48-3.8-8.48-8.48-8.48h0c-4.68,0-8.48,3.8-8.48,8.48Z"></path>
    <rect class="cls-6" x="180.36" y="166.43" width="70.17" height="46.78" rx="2.34" ry="2.34"></rect>
    <circle class="cls-7" cx="195.96" cy="176.57" r="5.46"></circle>
    <path class="cls-3" d="m229.15,176.99l-21.07,21.3-7.25-7.33c-1.08-1.09-2.85-1.09-3.93,0l-11.86,11.98v5.59h60.82v-18.63l-12.78-12.92c-1.08-1.09-2.85-1.09-3.93,0h0Z"></path>
    <path class="cls-16" d="m222.07,202.81c-2.56.87-5.56.31-7.63-1.43s-3.14-4.6-2.71-7.27,2.32-5.06,4.82-6.08c-1.51-1.55-1.16-4.47.67-5.62l12.94-7.82c1.78-.56,3.86-.08,5.21,1.21s1.94,3.34,1.46,5.15c2.22.91,2.53,4.41,1.72,6.67-.73,2.04-1.9,2.89-1.84,5.05.03,1.06.6,2.03.78,3.07s-.51,3.32-2.3,3.32l-13.13,3.73Z"></path>
    <path class="cls-2" d="m239.65,208.53c0-2.83.46-6.23-2.37-8.83s-7.16-2.54-7.16-2.54h-6.58s-4.33-.06-7.16,2.54-2.37,6-2.37,8.83h25.63Z"></path>
    <path class="cls-8" d="m229.75,193.41s-.98,2.77.4,3.75c0,0-.89,6.47-3.32,6.47-2.42,0-3.32-6.47-3.32-6.47,1.39-.98.4-3.75.4-3.75h5.83Z"></path>
    <path class="cls-11" d="m226.84,195.08c3.53,0,6.21-4.33,6.21-4.96v-1.44c.18.4,2.19.29,2.19-2.19,0-2.48-1.7-1.85-1.7-1.85,0-6.98-3.71-8.14-6.69-8.14-2.98,0-6.69,1.15-6.69,8.14,0,0-1.7-.63-1.7,1.85s2.01,2.6,2.19,2.19v1.44c0,.63,2.68,4.96,6.21,4.96Z"></path>
    <path class="cls-14" d="m225.21,175.29s-8.43-2.77-5.14,11.37c0,0,.29.52.29-.81s-.12-7.68,3.17-7.68c1.39,0,1.85.81,3,.81s3.29-1.1,4.39-.35,1.96,2.37,2.42,8.6c0,0,.35.4.52-1.44s3.45-8.32-1.71-10.63c-3.18-1.42-5.05-1.15-6.95.12Z"></path>
    <path class="cls-14" d="m230.54,174.68c-1.11-2.27-4.44-3.66-6.88-2.97s-4.31,2.74-5.35,5.04-1.35,4.87-1.52,7.4c-.07.99-.05,2.16.75,2.76.91.68,2.2.16,3.17-.43,4.1-2.49,7.59-7.56,9.83-11.81Z"></path>
    <rect class="cls-6" x="34.83" y="166.43" width="70.17" height="46.78" rx="2.34" ry="2.34"></rect>
    <circle class="cls-7" cx="50.42" cy="176.57" r="5.46"></circle>
    <path class="cls-4" d="m83.62,176.99l-21.07,21.3-7.25-7.33c-1.08-1.09-2.85-1.09-3.93,0l-11.86,11.98v5.59h60.82v-18.63l-12.78-12.92c-1.08-1.09-2.85-1.09-3.93,0h0Z"></path>
    <rect class="cls-6" x="107.6" y="166.43" width="70.17" height="46.78" rx="2.34" ry="2.34"></rect>
    <circle class="cls-7" cx="123.19" cy="176.57" r="5.46"></circle>
    <path class="cls-1" d="m156.38,176.99l-21.07,21.3-7.25-7.33c-1.08-1.09-2.85-1.09-3.93,0l-11.86,11.98v5.59h60.82v-18.63l-12.78-12.92c-1.08-1.09-2.85-1.09-3.93,0h0Z"></path>
    <path class="cls-10" d="m49.16,148.7l-4.14,3.91v-48.88l4.14,3.91c.64.6,1.64.57,2.24-.06.6-.64.57-1.64-.06-2.24l-6.82-6.44s-.07-.05-.1-.08c-.04-.03-.08-.07-.13-.1-.05-.03-.1-.05-.15-.08-.04-.02-.08-.04-.12-.06-.06-.02-.12-.04-.18-.06-.04,0-.07-.02-.11-.03-.2-.04-.41-.04-.61,0-.04,0-.08.02-.12.03-.06.02-.11.03-.17.05-.05.02-.09.04-.13.07-.05.02-.09.05-.14.07-.05.03-.09.07-.13.1-.03.03-.06.05-.09.07l-6.82,6.44c-.64.6-.67,1.6-.06,2.24.31.33.73.5,1.15.5.39,0,.78-.14,1.09-.43l4.14-3.91v48.88l-4.14-3.91c-.64-.6-1.64-.57-2.24.06-.6.64-.57,1.64.06,2.24l6.82,6.44s.06.05.09.07c.04.03.08.07.13.1.04.03.09.05.14.07.04.02.09.05.13.07.05.02.11.04.17.05.04.01.08.03.12.04.1.02.2.03.31.03s.2-.01.31-.03c.04,0,.08-.02.12-.04.06-.02.11-.03.17-.05.05-.02.09-.04.13-.07.05-.02.09-.05.14-.07.05-.03.09-.07.13-.1.03-.03.06-.05.09-.07l6.82-6.44c.64-.6.67-1.6.06-2.24s-1.6-.66-2.24-.06Z"></path>
    <path class="cls-10" d="m109.16,88.18s.05-.09.08-.14c.02-.04.05-.08.07-.13.02-.06.04-.11.05-.17.01-.04.03-.08.03-.12.04-.2.04-.41,0-.61,0-.04-.02-.08-.03-.12-.02-.06-.03-.12-.05-.17-.02-.05-.04-.09-.07-.13-.02-.05-.05-.09-.08-.14-.03-.05-.07-.09-.1-.13-.03-.03-.05-.07-.07-.1l-6.44-6.82c-.6-.64-1.6-.67-2.24-.06-.64.6-.67,1.6-.06,2.24l3.91,4.14h-46.16l3.91-4.14c.6-.64.57-1.64-.06-2.24-.64-.6-1.64-.57-2.24.06l-6.44,6.82s-.05.06-.07.09c-.03.04-.07.08-.1.13-.03.04-.05.09-.08.14-.02.04-.05.08-.07.13-.02.06-.04.11-.05.17-.01.04-.03.08-.03.12-.04.2-.04.41,0,.61,0,.04.02.08.03.12.02.06.03.11.05.17.02.05.04.09.07.13.02.05.05.09.08.14.03.05.07.09.1.13.03.03.05.07.07.09l6.44,6.82c.31.33.73.5,1.15.5.39,0,.78-.14,1.09-.43.64-.6.67-1.6.06-2.24l-3.91-4.14h46.16l-3.91,4.14c-.6.64-.57,1.64.06,2.24.31.29.7.43,1.09.43.42,0,.84-.17,1.15-.5l6.44-6.82s.05-.06.07-.1c.03-.04.07-.08.1-.13Z"></path>
    <path class="cls-2" d="m105.39,97.65c-.97,0-1.87.42-2.57,1.18l-7.43,8.33c-.14.21-.42.28-.69.21-2.43-.83-7.36-2.22-12.84-2.22s-10.06,1.39-12.22,2.22c-.28.14-.56.07-.76-.14l-8.05-8.54c-.62-.69-1.53-1.11-2.5-1.11-1.94,0-3.47,1.53-3.47,3.47v30.68c0,15.2,12.15,27.55,27.07,27.55h0c.21,0,.35,0,.42-.07,14.57-.28,26.51-12.42,26.51-27.07v-31.02c0-1.94-1.53-3.47-3.47-3.47Zm-35.95,33.18c-1.94,0-3.47-1.53-3.47-3.47s1.53-3.47,3.47-3.47,3.47,1.53,3.47,3.47-1.53,3.47-3.47,3.47Zm17.84,9.37l-4.16,2.78h0c-.35.28-.76.35-1.18.35s-.83-.14-1.18-.35l-4.16-2.78c-.76-.56-1.11-1.46-.83-2.36.28-.83,1.11-1.46,2.01-1.46h8.33c.97,0,1.74.56,2.01,1.46.28.9-.07,1.87-.83,2.36Zm7.15-9.37c-1.94,0-3.47-1.53-3.47-3.47s1.53-3.47,3.47-3.47,3.47,1.53,3.47,3.47-1.53,3.47-3.47,3.47Z"></path>
    <circle class="cls-10" cx="33.47" cy="225.39" r="33.47"></circle>
    <polygon class="cls-5" points="20.26 206.43 20.26 244.35 53.1 225.39 20.26 206.43"></polygon>
  </g>
</svg>
