<?xml version="1.0" encoding="UTF-8"?>
<svg xmlns="http://www.w3.org/2000/svg" id="Layer_2" width="302.25" height="297.8" viewBox="0 0 302.25 297.8">
  <defs>
    <style>.cls-1{fill-rule:evenodd;}.cls-1,.cls-2,.cls-3{fill:#404040;}.cls-4{fill:#b5d7ff;}.cls-5{fill:#004aa0;}.cls-6{fill:#fb3;}.cls-7{fill:#00a251;}.cls-2{opacity:.5;}.cls-8{fill:#de1b29;}.cls-9{fill:#e6e6e6;}.cls-10{fill:#002c68;}.cls-11{fill:#f2f2f2;}</style>
  </defs>
  <g id="Layer_1-2">
    <path id="Path_756" class="cls-4" d="m302.25,148.95c-.02,82.24-66.71,148.88-148.95,148.85-82.24-.02-148.88-66.71-148.85-148.95C4.48,66.62,71.16-.02,153.4,0c12.61,0,25.17,1.61,37.38,4.78h0c55.54,12.36,111.47,68.54,111.47,144.17Z"></path>
    <rect class="cls-9" x="35.12" y="37" width="166.31" height="215.6" rx="9.4" ry="9.4" transform="translate(-50.73 64.84) rotate(-25.44)"></rect>
    <polygon class="cls-3" points="48.75 75.61 50.61 79.54 71.56 69.63 118.69 47.37 118.05 46.01 116.84 43.44 48.75 75.61"></polygon>
    <polygon class="cls-3" points="67.25 208.28 69.2 212.4 90.16 202.5 137.29 180.23 136.61 178.8 135.34 176.11 67.25 208.28"></polygon>
    <polygon class="cls-3" points="72.25 218.82 74.2 222.94 75.47 222.34 78.32 220.99 77.65 219.57 76.37 216.87 72.25 218.82"></polygon>
    <polygon class="cls-3" points="76.15 227.08 78.1 231.2 79.37 230.6 82.22 229.25 81.55 227.83 80.27 225.13 76.15 227.08"></polygon>
    <polygon class="cls-3" points="80.05 235.33 82 239.45 83.27 238.85 86.12 237.51 85.45 236.08 84.17 233.39 80.05 235.33"></polygon>
    <polygon class="cls-3" points="82.31 216.15 82.79 217.18 120.51 199.36 205.32 159.29 205.15 158.93 204.83 158.26 82.31 216.15"></polygon>
    <polygon class="cls-3" points="86.21 224.41 86.7 225.44 124.41 207.62 209.22 167.55 209.05 167.19 208.73 166.52 86.21 224.41"></polygon>
    <polygon class="cls-3" points="90.11 232.67 90.6 233.7 128.31 215.87 213.12 175.8 212.95 175.45 212.63 174.77 90.11 232.67"></polygon>
    <rect class="cls-3" x="90.92" y="84.12" width="20.43" height="2.71" transform="translate(-26.82 51.4) rotate(-25.29)"></rect>
    <rect class="cls-3" x="39.87" y="137.71" width="50.35" height=".79" transform="translate(-52.77 41.03) rotate(-25.29)"></rect>
    <rect class="cls-3" x="41.83" y="141.86" width="50.35" height=".79" transform="translate(-54.35 42.26) rotate(-25.29)"></rect>
    <rect class="cls-3" x="81.45" y="59.23" width="74.63" height=".79" transform="translate(-14.09 56.45) rotate(-25.29)"></rect>
    <rect class="cls-3" x="83.14" y="62.81" width="74.63" height=".79" transform="translate(-15.46 57.52) rotate(-25.29)"></rect>
    <rect class="cls-3" x="73.8" y="178.91" width="18.02" height=".79" transform="translate(-68.67 52.57) rotate(-25.29)"></rect>
    <rect class="cls-3" x="75" y="181.45" width="18.02" height=".79" transform="translate(-69.64 53.32) rotate(-25.29)"></rect>
    <rect class="cls-3" x="76.2" y="183.99" width="18.02" height=".79" transform="translate(-70.61 54.08) rotate(-25.29)"></rect>
    <path class="cls-10" d="m60.03,82.61c-.68.32-1.17.91-1.4,1.66l-2.43,8.23c-.03.19-.2.33-.41.37-1.96.22-5.84.87-9.66,2.67s-6.54,4.27-7.76,5.56c-.15.19-.36.23-.58.15l-8.4-3.29c-.66-.28-1.43-.27-2.1.05-1.35.64-1.91,2.2-1.27,3.55l10.08,21.33c4.99,10.57,17.5,15.17,27.87,10.26h0c.14-.07.24-.11.27-.19,10.04-4.98,14.35-17.35,9.54-27.53l-10.19-21.57c-.64-1.35-2.2-1.91-3.55-1.27Zm-14.1,34.88c-1.35.64-2.91.08-3.55-1.27s-.08-2.91,1.27-3.55,2.91-.08,3.55,1.27.08,2.91-1.27,3.55Zm15.48.65l-1.98,3.3h0c-.15.31-.42.49-.71.63s-.62.18-.93.15l-3.81-.56c-.71-.14-1.25-.65-1.35-1.37-.08-.67.29-1.38.92-1.67l5.79-2.74c.68-.32,1.39-.18,1.88.35.49.54.57,1.33.2,1.91Zm1.89-8.86c-1.35.64-2.91.08-3.55-1.27s-.08-2.91,1.27-3.55,2.91-.08,3.55,1.27.08,2.91-1.27,3.55Z"></path>
    <path class="cls-10" d="m111.37,89.78c-.31.14-.53.41-.63.75l-1.1,3.73c-.01.09-.09.15-.19.17-.89.1-2.65.4-4.37,1.21s-2.96,1.93-3.52,2.52c-.07.09-.16.1-.26.07l-3.81-1.49c-.3-.13-.65-.12-.95.02-.61.29-.87,1-.58,1.61l4.56,9.66c2.26,4.79,7.93,6.87,12.62,4.65h0c.07-.03.11-.05.12-.08,4.55-2.26,6.5-7.86,4.32-12.47l-4.62-9.77c-.29-.61-1-.87-1.61-.58Z"></path>
    <rect class="cls-10" x="64.87" y="154.18" width="23.23" height="23.23" transform="translate(-63.5 48.57) rotate(-25.29)"></rect>
    <rect class="cls-3" x="100.81" y="166.15" width="18.02" height=".79" transform="translate(-60.63 62.88) rotate(-25.29)"></rect>
    <rect class="cls-3" x="102.01" y="168.69" width="18.02" height=".79" transform="translate(-61.6 63.64) rotate(-25.29)"></rect>
    <rect class="cls-3" x="103.21" y="171.23" width="18.02" height=".79" transform="translate(-62.57 64.4) rotate(-25.29)"></rect>
    <rect class="cls-7" x="91.88" y="141.42" width="23.23" height="23.23" transform="translate(-55.46 58.89) rotate(-25.29)"></rect>
    <path class="cls-2" d="m95.47,61.36v196.8c0,5.19,4.21,9.4,9.4,9.4h6.28l120.03-57.09c4.69-2.23,6.68-7.84,4.45-12.52L166.2,51.97h-61.33c-5.19,0-9.4,4.21-9.4,9.4Z"></path>
    <rect class="cls-11" x="105.41" y="40.81" width="166.31" height="215.6" rx="9.4" ry="9.4"></rect>
    <polygon class="cls-3" points="155.62 59.1 155.62 63.45 178.8 63.45 230.93 63.45 230.93 61.94 230.93 59.1 155.62 59.1"></polygon>
    <polygon class="cls-3" points="115.67 186.96 115.67 191.52 138.85 191.52 190.98 191.52 190.98 189.94 190.98 186.96 115.67 186.96"></polygon>
    <polygon class="cls-3" points="115.69 198.63 115.69 203.18 117.09 203.18 120.24 203.18 120.24 201.61 120.24 198.63 115.69 198.63"></polygon>
    <polygon class="cls-3" points="115.69 207.76 115.69 212.31 117.09 212.31 120.24 212.31 120.24 210.74 120.24 207.76 115.69 207.76"></polygon>
    <polygon class="cls-3" points="115.69 216.89 115.69 221.44 117.09 221.44 120.24 221.44 120.24 219.87 120.24 216.89 115.69 216.89"></polygon>
    <polygon class="cls-3" points="125.92 200.51 125.92 201.65 167.63 201.65 261.43 201.65 261.43 201.26 261.43 200.51 125.92 200.51"></polygon>
    <polygon class="cls-3" points="125.92 209.64 125.92 210.78 167.63 210.78 261.43 210.78 261.43 210.39 261.43 209.64 125.92 209.64"></polygon>
    <polygon class="cls-3" points="125.92 218.77 125.92 219.91 167.63 219.91 261.43 219.91 261.43 219.52 261.43 218.77 125.92 218.77"></polygon>
    <rect class="cls-3" x="188.56" y="89.05" width="20.43" height="2.71"></rect>
    <rect class="cls-3" x="118.48" y="122.17" width="50.35" height=".79"></rect>
    <rect class="cls-3" x="118.48" y="126.76" width="50.35" height=".79"></rect>
    <rect class="cls-3" x="188.44" y="74.17" width="74.63" height=".79"></rect>
    <rect class="cls-3" x="188.44" y="78.12" width="74.63" height=".79"></rect>
    <rect class="cls-3" x="188.44" y="82.08" width="63.6" height=".79"></rect>
    <rect class="cls-3" x="239.06" y="126.68" width="18.02" height=".79"></rect>
    <rect class="cls-3" x="133.11" y="167.02" width="18.02" height=".79"></rect>
    <rect class="cls-3" x="133.11" y="169.83" width="18.02" height=".79"></rect>
    <rect class="cls-3" x="133.11" y="172.64" width="18.02" height=".79"></rect>
    <rect class="cls-3" x="214.81" y="126.68" width="11.21" height=".79"></rect>
    <rect class="cls-3" x="192.51" y="126.68" width="11.21" height=".79"></rect>
    <path class="cls-5" d="m162.83,70.25c-.75,0-1.44.32-1.97.91l-5.71,6.4c-.11.16-.32.21-.53.16-1.87-.64-5.66-1.71-9.87-1.71s-7.74,1.07-9.39,1.71c-.21.11-.43.05-.59-.11l-6.19-6.56c-.48-.53-1.17-.85-1.92-.85-1.49,0-2.67,1.17-2.67,2.67v23.59c0,11.69,9.34,21.19,20.81,21.19h0c.16,0,.27,0,.32-.05,11.21-.21,20.39-9.55,20.39-20.81v-23.86c0-1.49-1.17-2.67-2.67-2.67Zm-27.65,25.51c-1.49,0-2.67-1.17-2.67-2.67s1.17-2.67,2.67-2.67,2.67,1.17,2.67,2.67-1.17,2.67-2.67,2.67Zm13.72,7.21l-3.2,2.13h0c-.27.21-.59.27-.91.27s-.64-.11-.91-.27l-3.2-2.13c-.59-.43-.85-1.12-.64-1.81.21-.64.85-1.12,1.55-1.12h6.4c.75,0,1.33.43,1.55,1.12.21.69-.05,1.44-.64,1.81Zm5.5-7.21c-1.49,0-2.67-1.17-2.67-2.67s1.17-2.67,2.67-2.67,2.67,1.17,2.67,2.67-1.17,2.67-2.67,2.67Z"></path>
    <path class="cls-5" d="m206.19,98.67c-.34,0-.65.15-.89.41l-2.59,2.9c-.05.07-.15.1-.24.07-.85-.29-2.56-.77-4.47-.77s-3.51.48-4.25.77c-.1.05-.19.02-.27-.05l-2.8-2.97c-.22-.24-.53-.39-.87-.39-.68,0-1.21.53-1.21,1.21v10.68c0,5.29,4.23,9.6,9.43,9.6h0c.07,0,.12,0,.14-.02,5.08-.1,9.23-4.33,9.23-9.43v-10.81c0-.68-.53-1.21-1.21-1.21Z"></path>
    <path class="cls-5" d="m233.14,94.56v29.67h29.67v-29.67h-29.67Zm24.24,16.13c0,5.1-4.16,9.33-9.23,9.43-.02.02-.07.02-.15.02-5.2,0-9.43-4.3-9.43-9.6v-10.69c0-.68.53-1.21,1.21-1.21.34,0,.65.15.87.39l2.8,2.97c.07.07.17.1.27.05.75-.29,2.3-.77,4.25-.77s3.63.48,4.47.77c.1.02.19,0,.24-.07l2.59-2.9c.24-.27.56-.41.89-.41.68,0,1.21.53,1.21,1.21v10.81Z"></path>
    <path class="cls-5" d="m220.54,119.95c-5.19,0-9.42-4.29-9.42-9.56v-9.29c0-1.25,1.02-2.27,2.27-2.27.63,0,1.24.27,1.66.74l1.97,2.08c.82-.26,2.04-.53,3.5-.53s2.73.28,3.62.53l1.81-2.04c.45-.5,1.05-.76,1.69-.76,1.25,0,2.27,1.02,2.27,2.27v9.39c0,5.04-4.05,9.23-9.06,9.41-.14.03-.25.03-.31.03Zm-.73-2.11h0,0Zm0,0s0,0,0,0c0,0,0,0,0,0Zm-6.24-16.31v8.85c0,3.9,3.08,7.07,6.88,7.12.06-.01.13-.02.2-.02,3.77-.07,6.83-3.2,6.83-6.98v-8.94l-1.92,2.15c-.34.41-.91.6-1.45.46-.03,0-.06-.02-.09-.03-.53-.18-1.94-.61-3.49-.61s-2.65.36-3.23.58c-.53.23-1.16.11-1.57-.31l-2.16-2.29Zm10.04.73s0,0,0,0c0,0,0,0,0,0Zm0,0h0,0Zm-10.34-1.04h0s0,0,0,0Z"></path>
    <rect class="cls-5" x="130.55" y="140.88" width="23.23" height="23.23"></rect>
    <rect class="cls-3" x="162.98" y="167.02" width="18.02" height=".79"></rect>
    <rect class="cls-3" x="162.98" y="169.83" width="18.02" height=".79"></rect>
    <rect class="cls-3" x="162.98" y="172.64" width="18.02" height=".79"></rect>
    <rect class="cls-7" x="160.43" y="140.88" width="23.23" height="23.23"></rect>
    <rect class="cls-3" x="192.85" y="167.02" width="18.02" height=".79"></rect>
    <rect class="cls-3" x="192.85" y="169.83" width="18.02" height=".79"></rect>
    <rect class="cls-3" x="192.85" y="172.64" width="18.02" height=".79"></rect>
    <rect class="cls-6" x="190.3" y="140.88" width="23.23" height="23.23"></rect>
    <rect class="cls-3" x="222.72" y="167.02" width="18.02" height=".79"></rect>
    <rect class="cls-3" x="222.72" y="169.83" width="18.02" height=".79"></rect>
    <rect class="cls-3" x="222.72" y="172.64" width="18.02" height=".79"></rect>
    <rect class="cls-8" x="220.17" y="140.88" width="23.23" height="23.23"></rect>
    <path class="cls-1" d="m160.53,231.56c-2.56,0-4.95,1.23-6.44,3.28-.78-1.07-1.81-1.93-3.01-2.5h0c-.1-.05-.22-.06-.33-.04-.11.03-.21.09-.28.18-.07.09-.11.2-.11.31v5.92c0,.17.09.33.24.43.15.09.33.1.49.03,1.2-.57,2.23-1.43,3.01-2.5,1.5,2.05,3.88,3.28,6.44,3.28h0c.55,0,1.09-.06,1.62-.17h0c2.18-.46,4.1-1.81,5.26-3.78h0c.05-.08.07-.17.07-.26s-.02-.18-.07-.26c-1.44-2.44-4.06-3.94-6.88-3.94h0Zm0,1.01c.2,0,.4,0,.6.03-.61.94-.94,2.04-.94,3.17s.33,2.23.94,3.17c-.2.02-.4.03-.6.03-2.37,0-4.56-1.21-5.85-3.19,1.29-1.99,3.48-3.19,5.85-3.19h0Zm1.71.21c1.69.43,3.17,1.48,4.14,2.98-.97,1.5-2.46,2.55-4.14,2.98-.67-.84-1.03-1.89-1.03-2.98s.37-2.13,1.03-2.98h0Zm-10.87.88c.85.54,1.57,1.25,2.12,2.1-.55.85-1.28,1.56-2.12,2.1v-4.2Zm11.95.75h0c-.41.01-.74.35-.74.77s.35.76.76.76.76-.35.76-.76-.34-.77-.76-.77h-.01,0Z"></path>
    <path class="cls-3" d="m190.67,234.53h0s-.01-.07-.01-.07c-.08-.44-.21-.86-.39-1.28-.12-.28-.26-.54-.41-.79-.04-.06-.07-.12-.11-.18-.16-.25-.33-.49-.52-.71,0,0,0,0-.01-.01l-.41-.47-.02.03c-1.8-1.74-4.54-2.34-6.99-1.31-2.47,1.04-3.96,3.46-3.95,5.99h-.04s.06.57.06.57c0,.02,0,.04,0,.06v.04s.01.03.01.04c.03.26.08.52.14.79.01.06.03.12.04.18.07.27.16.54.27.8.16.37.35.73.58,1.07.02.02.03.05.04.07l.11.16h.03c.7.96,1.64,1.72,2.76,2.18.79.32,1.61.48,2.43.48s1.7-.17,2.51-.51c1.59-.67,2.82-1.92,3.47-3.52.47-1.16.59-2.39.37-3.59Zm-10.95,4.06c-.16-.25-.31-.51-.43-.79-.12-.29-.2-.58-.27-.87,4.95.6,8.28-2.45,9.81-4.29.02.03.04.05.05.07.18.27.34.55.46.85.1.25.17.5.23.75-1.34,1.76-4.69,5.21-9.86,4.27Zm-.45-4.96c.55-1.35,1.59-2.41,2.93-2.97.69-.29,1.41-.43,2.11-.43,1.45,0,2.85.59,3.87,1.62-1.58,1.97-4.67,4.72-9.3,4.04-.03-.77.09-1.53.39-2.27Zm7.17,7.08c-1.34.57-2.83.58-4.18.03-.6-.25-1.14-.6-1.6-1.03.27.02.54.04.8.04,4.01,0,6.81-2.36,8.32-4.1,0,.71-.13,1.41-.4,2.09-.55,1.35-1.59,2.41-2.93,2.97Z"></path>
    <path class="cls-3" d="m209.69,240.99c-6.36,0-8.16-1.94-8.23-2.02-.09-.1-.14-.24-.13-.37.15-2.69,1.16-4.91,1.2-5,.03-.06.11-.15.11-.15.45-.5,1.14-.9,2.04-1.2.14-.25.43-.47.76-.6.2-1.23,1.27-2.15,2.53-2.15.68,0,1.33.27,1.81.76.28-.1.56-.15.85-.15.93,0,1.76.5,2.21,1.31.08,0,.15-.01.23-.01.71,0,1.37.35,1.78.93.79.24,1.46.63,1.91,1.13h0s.08.09.11.15c.18.4,1.05,2.46,1.2,5,0,.14-.04.27-.13.37-.07.08-1.87,2.02-8.23,2.02Zm-7.31-2.59c.56.42,2.5,1.55,7.31,1.55s6.76-1.13,7.31-1.55c-.05-.66-.16-1.35-.33-2.06-1.09.53-3.32,1.32-6.98,1.32s-5.9-.79-6.98-1.32c-.17.71-.28,1.4-.33,2.06Zm.61-3.08c.84.43,2.98,1.3,6.7,1.3s5.98-.93,6.7-1.3c-.11-.36-.22-.65-.3-.87-2.97.96-4.5,1.14-6.4,1.14s-3.42-.18-6.4-1.14c-.08.22-.19.51-.3.87Zm4.97-4.8c-.83,0-1.52.68-1.52,1.52,0,.25-.18.46-.43.51-.43.07-.74.44-.74.87,0,.24.1.47.27.64,1.68.41,2.84.5,4.15.5s2.57-.1,4.42-.6c.06-.13.08-.27.08-.41,0-.62-.51-1.13-1.13-1.13-.11,0-.23.02-.36.07-.05.02-.11.03-.17.03-.08,0-.16-.02-.23-.05-.12-.06-.22-.17-.26-.3-.21-.62-.78-1.03-1.42-1.03-.25,0-.5.07-.74.2-.08.04-.17.07-.25.07-.17,0-.33-.08-.42-.22-.29-.41-.75-.65-1.25-.65Zm-3.71,3.14s-.01-.09-.01-.14c-.05.03-.11.06-.16.08.06.02.11.04.17.05Zm10.97-.03l.07-.02s-.04-.02-.07-.04c0,.02,0,.04,0,.06Z"></path>
  </g>
</svg>
