<?xml version="1.0" encoding="UTF-8"?><svg id="Layer_2" xmlns="http://www.w3.org/2000/svg" width="79.29" height="79.68" viewBox="0 0 79.29 79.68"><defs><style>.cls-1{fill:#fff;}.cls-2{fill:#b5d7ff;}.cls-3{fill:#de1b29;}.cls-4{fill:#404040;}</style></defs><g id="Layer_1-2"><g><polygon class="cls-3" points="9.07 67.44 69.83 67.44 69.26 71.72 75.17 78.46 3.2 78.46 10 70.7 9.07 67.44"/><g><polygon class="cls-1" points="10.46 33.84 68.83 33.84 67.41 67 9.53 67 10.46 33.84"/><polygon class="cls-2" points="53.77 58.55 53.77 11.81 58.13 11.81 61.6 16.88 58.31 17.34 58.31 58.55 53.77 58.55"/><rect class="cls-2" x="39.74" y="29.83" width="4.54" height="28.72"/><rect class="cls-2" x="25.79" y="46.48" width="4.54" height="12.07"/><g><g><polygon class="cls-4" points="79.29 79.68 0 79.68 8.8 69.63 8.8 32.18 30.37 32.18 30.37 35.5 12.12 35.5 12.12 70.88 7.32 76.36 71.97 76.36 67.17 70.88 67.17 35.5 62.53 35.5 62.53 32.18 70.49 32.18 70.49 69.63 79.29 79.68"/><rect class="cls-4" x="10.46" y="65.34" width="58.37" height="3.32"/><rect class="cls-1" x="22.28" y="71.68" width="34.74" height="3.32"/></g><g><path class="cls-4" d="M31.99,60.21h-12.39v-20.81h12.39v20.81Zm-9.07-3.32h5.75v-14.18h-5.75v14.18Z"/><path class="cls-4" d="M45.93,60.21h-12.39V22.7h12.39V60.21Zm-9.07-3.32h5.75V26.02h-5.75v30.87Z"/><path class="cls-4" d="M59.97,60.21h-12.39V18.53h-4.5L53.77,0l10.7,18.53h-4.5V60.21Zm-9.07-3.32h5.75V15.22h2.08l-4.95-8.58-4.95,8.58h2.07V56.89Z"/></g></g></g></g></g></svg>