<?xml version="1.0" encoding="UTF-8"?><svg id="Layer_2" xmlns="http://www.w3.org/2000/svg" width="72.35" height="68.39" viewBox="0 0 72.35 68.39"><defs><style>.cls-1{fill:#fff;}.cls-2{fill:#b5d7ff;}.cls-3{fill:#de1b29;}.cls-4{fill:#404040;}</style></defs><g id="Layer_1-2"><g><path class="cls-1" d="M6.57,34.93c0-16.35,13.25-29.6,29.6-29.6s29.6,13.25,29.6,29.6-13.25,29.6-29.6,29.6S6.57,51.28,6.57,34.93Z"/><path class="cls-2" d="M44.47,13.63c-16.35,0-29.6,13.25-29.6,29.6,0,6.05,1.82,11.67,4.94,16.36,4.69,3.12,10.31,4.94,16.36,4.94,16.35,0,29.6-13.25,29.6-29.6,0-6.05-1.82-11.67-4.94-16.36-4.69-3.12-10.31-4.94-16.36-4.94Z"/><g><g><path class="cls-4" d="M36.17,66.19c-17.24,0-31.26-14.02-31.26-31.26S18.94,3.67,36.17,3.67s31.26,14.02,31.26,31.26-14.02,31.26-31.26,31.26Zm0-59.2c-15.41,0-27.94,12.53-27.94,27.94s12.53,27.94,27.94,27.94,27.94-12.53,27.94-27.94S51.58,6.99,36.17,6.99Z"/><rect class="cls-3" x="34.51" y="11.66" width="3.32" height="19.86"/><rect class="cls-3" x="18.8" y="33.27" width="15.44" height="3.32"/><path class="cls-3" d="M31.28,34.93c0-2.7,2.19-4.9,4.9-4.9s4.9,2.19,4.9,4.9-2.19,4.9-4.9,4.9-4.9-2.19-4.9-4.9Z"/></g><path class="cls-4" d="M3.14,18.36C-1.05,14.16-1.05,7.34,3.14,3.15,7.34-1.05,14.16-1.05,18.36,3.15l-2.35,2.35c-2.9-2.9-7.62-2.9-10.52,0-2.9,2.9-2.9,7.62,0,10.52l-2.35,2.35Z"/><path class="cls-4" d="M69.2,18.36l-2.35-2.35c2.9-2.9,2.9-7.62,0-10.52-2.9-2.9-7.62-2.9-10.52,0l-2.35-2.35c4.2-4.19,11.02-4.19,15.21,0,4.19,4.19,4.19,11.02,0,15.21Z"/><g><rect class="cls-4" x="3.86" y="60.87" width="13.25" height="3.32" transform="translate(-41.15 25.73) rotate(-45)"/><rect class="cls-4" x="60.2" y="55.91" width="3.32" height="13.25" transform="translate(-26.1 62.05) rotate(-44.99)"/></g></g></g></g></svg>