<?xml version="1.0" encoding="UTF-8"?><svg id="Layer_2" xmlns="http://www.w3.org/2000/svg" width="90.74" height="56.1" viewBox="0 0 90.74 56.1"><defs><style>.cls-1{fill:#fff;}.cls-2{fill:#b5d7ff;}.cls-3{fill:#de1b29;}.cls-4{fill:#404040;}</style></defs><g id="Layer_1-2"><g><g><polygon class="cls-1" points="79.2 1.66 11.54 1.66 11.54 45.44 3.66 54.44 87.08 54.44 79.2 45.44 79.2 1.66"/><g><path class="cls-4" d="M90.74,56.1H0l9.88-11.28V0H80.86V44.82l9.88,11.28ZM7.32,52.78H83.42l-5.88-6.71V3.32H13.2V46.07l-5.88,6.71Z"/><rect class="cls-4" x="11.54" y="40.01" width="67.66" height="3.32"/><rect class="cls-3" x="25.24" y="47.36" width="40.27" height="3.32"/></g><rect class="cls-2" x="18.93" y="8.51" width="51.32" height="26.79"/><path class="cls-1" d="M16.33,13.24c0-4.05,3.28-7.33,7.32-7.33s7.33,3.28,7.33,7.33-3.28,7.32-7.33,7.32-7.32-3.28-7.32-7.32Z"/></g><polygon class="cls-4" points="54.77 29.95 52.47 27.65 57.2 22.92 52.08 17.8 54.38 15.5 61.8 22.92 54.77 29.95"/><polygon class="cls-4" points="35.63 29.95 28.6 22.92 36.02 15.5 38.32 17.8 33.2 22.92 37.93 27.65 35.63 29.95"/><rect class="cls-4" x="34.85" y="21.1" width="20.69" height="3.25" transform="translate(4.95 53.37) rotate(-63.97)"/></g></g></svg>