<?xml version="1.0" encoding="UTF-8"?><svg id="Layer_2" xmlns="http://www.w3.org/2000/svg" width="70.81" height="46.12" viewBox="0 0 70.81 46.12"><defs><style>.cls-1{fill:#fff;}.cls-2{fill:#b5d7ff;}.cls-3{fill:#de1b29;}.cls-4{fill:#404040;}</style></defs><g id="Layer_1-2"><g><polygon class="cls-1" points="2.17 5.46 5.55 1.68 65.42 1.18 69.18 4.65 68.86 41.44 65.88 45.11 5.28 44.53 .61 40.44 2.17 5.46"/><path class="cls-2" d="M10.87,6.3h57.87V39.9c0,2.43-1.97,4.4-4.4,4.4H10.87V6.3h0Z"/><rect class="cls-3" x="2.45" y="9.29" width="65.91" height="7.82"/><path class="cls-4" d="M64.47,46.12H6.36c-3.51,0-6.36-2.85-6.36-6.35V6.34C0,2.84,2.85,0,6.36,0h58.11c3.49,0,6.34,2.84,6.34,6.34V39.78c0,3.5-2.84,6.35-6.34,6.35ZM6.36,3.07c-1.82,0-3.29,1.47-3.29,3.27V39.78c0,1.81,1.48,3.28,3.29,3.28h58.11c1.8,0,3.27-1.47,3.27-3.28V6.34c0-1.8-1.47-3.27-3.27-3.27H6.36Z"/><rect class="cls-4" x="36.12" y="25.27" width="28.07" height="3.07"/><rect class="cls-4" x="36.12" y="30.55" width="28.07" height="3.07"/></g></g></svg>