<?xml version="1.0" encoding="UTF-8"?>
<svg xmlns="http://www.w3.org/2000/svg" id="Layer_2" viewBox="0 0 316.7384 290.4671">
  <g id="Layer_1-2">
    <g id="Layer_2-2">
      <g id="Software">
        <circle cx="158.3691" cy="149.3259" r="141.1412" style="fill:#b5d7ff;"></circle>
        <rect x="42.3389" y="18.3487" width="179.6604" height="225.4043" style="fill:#fff;"></rect>
        <rect x="53.3657" y="29.376" width="157.6069" height="72.5406" style="fill:#004aa0;"></rect>
        <path d="M221.9992,9.9524C221.9992,4.4559,217.5434,0,212.0468,0H52.2909c-5.4966,0-9.9524,4.4559-9.9524,9.9524v8.3966H221.9992V9.9524Z" style="fill:#161e2e;"></path>
        <rect x="80.3431" y="57.4759" width="103.6522" height="16.3409" style="fill:#002c68;"></rect>
        <rect x="82.5486" y="59.6808" width="99.241" height="11.9301" style="fill:#f3f2f2;"></rect>
        <rect x="165.0293" y="57.9592" width="2.2055" height="15.371" style="fill:#002c68;"></rect>
        <path d="M175.7362,61.756c-1.4667-1.4786-3.8543-1.4882-5.3329-.0215-1.4786,1.4667-1.4882,3.8543-.0215,5.3329,1.3208,1.3315,3.4194,1.49,4.9252,.372l3.2004,3.2004,.7794-.7797-3.2004-3.2004c1.1135-1.4958,.9646-3.5813-.3501-4.9037Zm-.7797,4.5531c-1.042,1.0421-2.7315,1.0422-3.7737,.0003-1.0421-1.042-1.0423-2.7315-.0002-3.7737,1.042-1.0421,2.7315-1.0422,3.7737-.0003,0,0,.0002,.0002,.0002,.0003,1.0443,1.0426,1.0499,2.7301,.0074,3.7744-.0011,.0011-.0021,.0021-.0074-.001h0Z" style="fill:#002c68;"></path>
        <rect x="53.3655" y="112.9406" width="45.4263" height="14.3936" style="fill:#dbdbdb;"></rect>
        <rect x="109.4559" y="112.9406" width="45.4263" height="14.3936" style="fill:#dbdbdb;"></rect>
        <rect x="165.5463" y="112.9406" width="45.4263" height="14.3936" style="fill:#dbdbdb;"></rect>
        <rect x="53.3657" y="218.2704" width="45.4263" height="14.3939" style="fill:#dbdbdb;"></rect>
        <rect x="109.4559" y="218.2704" width="45.4263" height="14.3939" style="fill:#dbdbdb;"></rect>
        <rect x="165.5463" y="218.2704" width="45.4263" height="14.3939" style="fill:#dbdbdb;"></rect>
        <rect x="53.3657" y="139.9446" width="45.4263" height="44.9565" style="fill:#002c68;"></rect>
        <rect x="109.456" y="139.9446" width="45.4263" height="44.9565" style="fill:#b5d7ff;"></rect>
        <rect x="165.5463" y="139.9446" width="45.4263" height="44.9565" style="fill:#004aa0;"></rect>
        <rect x="53.3657" y="191.088" width="45.4263" height="2.3471" style="fill:#004aa0;"></rect>
        <rect x="109.456" y="191.088" width="45.4263" height="2.3471" style="fill:#b5d7ff;"></rect>
        <rect x="165.5463" y="191.088" width="45.4263" height="2.3471" style="fill:#004aa0;"></rect>
        <rect x="53.3657" y="197.2005" width="45.4263" height="2.3471" style="fill:#004aa0;"></rect>
        <rect x="109.456" y="197.2005" width="45.4263" height="2.3471" style="fill:#b5d7ff;"></rect>
        <rect x="165.5463" y="197.2005" width="45.4263" height="2.3471" style="fill:#004aa0;"></rect>
        <rect x="53.3657" y="203.3132" width="45.4263" height="2.3471" style="fill:#004aa0;"></rect>
        <rect x="109.456" y="203.3132" width="45.4263" height="2.3471" style="fill:#b5d7ff;"></rect>
        <rect x="165.5463" y="203.3132" width="45.4263" height="2.3471" style="fill:#004aa0;"></rect>
        <rect x="184.1646" y="57.4759" width="69.9638" height="124.4482" rx="8.4185" ry="8.4185" style="fill:#161e2e;"></rect>
        <rect x="186.3704" y="72.3616" width="65.5525" height="94.6769" style="fill:#fff;"></rect>
        <rect x="190.781" y="76.7722" width="56.7313" height="35.4136" style="fill:#004aa0;"></rect>
        <rect x="210.8815" y="65.0948" width="16.5299" height="1.1029" style="fill:#dbdbdb;"></rect>
        <path d="M219.1568,169.3283c-2.6735-.0062-4.8458,2.1561-4.852,4.8296-.0062,2.6735,2.1561,4.8458,4.8296,4.852,2.6735,.0062,4.8458-2.1561,4.852-4.8296v-.0002c.0077-2.6718-2.152-4.844-4.8239-4.8517-.0019,0-.0038,0-.0057,0Zm0,9.0207c-2.3081,.0061-4.1842-1.86-4.1903-4.1681-.0061-2.3081,1.86-4.1841,4.1681-4.1903,2.3081-.0061,4.1841,1.86,4.1903,4.1681,0,.0073,0,.0146,0,.0218-.0088,2.2983-1.8698,4.1592-4.1681,4.1679v.0005Z" style="fill:#dbdbdb;"></path>
        <rect x="194.8206" y="90.6439" width="48.6524" height="7.6703" style="fill:#002c68;"></rect>
        <rect x="195.8558" y="91.679" width="46.5818" height="5.5998" style="fill:#f3f2f2;"></rect>
        <rect x="234.5707" y="90.8708" width="1.0352" height="7.2149" style="fill:#002c68;"></rect>
        <path d="M239.5964,92.6529c-.6884-.6941-1.8092-.6986-2.5033-.0102s-.6986,1.8092-.0102,2.5033c.62,.6251,1.6051,.6995,2.312,.1746l1.5019,1.502,.366-.3658-1.5021-1.502c.5227-.7021,.4528-1.6811-.1643-2.3019Zm-.3661,2.1373c-.4891,.4891-1.282,.489-1.7711,0-.489-.4891-.489-1.282,0-1.7711,.489-.489,1.2819-.489,1.771,0,.4882,.4895,.4882,1.2817,0,1.7712Z" style="fill:#002c68;"></path>
        <path d="M263.53,160.5757c0,2.7101-2.1968,4.9071-4.9069,4.9072-2.7101,0-4.9071-2.1968-4.9072-4.9069,0-2.7101,2.1968-4.9071,4.9069-4.9072h.0001c2.71,0,4.907,2.1968,4.9071,4.9068h0Z" style="fill:#515252;"></path>
        <rect x="285.3782" y="131.7157" width="3.3199" height="3.3197" style="fill:#515252;"></rect>
        <path d="M275.5514,96.6975v29.1865h9.4229v-21.1813h17.8458c-5.9208-9.8402-27.2687-8.0053-27.2687-8.0053Z" style="fill:#cdcccb;"></path>
        <rect x="263.6814" y="75.737" width="16.6766" height="171.1516" style="fill:#fff;"></rect>
        <rect x="263.6807" y="88.0487" width="5.2938" height="1.1026" style="fill:#515252;"></rect>
        <rect x="263.6807" y="98.1956" width="5.2938" height="1.1026" style="fill:#515252;"></rect>
        <rect x="263.6807" y="108.3428" width="5.2938" height="1.1026" style="fill:#515252;"></rect>
        <rect x="263.6807" y="118.4898" width="5.2938" height="1.1026" style="fill:#515252;"></rect>
        <rect x="263.6807" y="128.6367" width="5.2938" height="1.1029" style="fill:#474f59;"></rect>
        <rect x="263.6807" y="138.7838" width="5.2938" height="1.1026" style="fill:#474f59;"></rect>
        <rect x="263.6807" y="148.9308" width="5.2938" height="1.1026" style="fill:#474f59;"></rect>
        <rect x="263.6807" y="159.078" width="5.2938" height="1.1026" style="fill:#474f59;"></rect>
        <rect x="263.6807" y="169.2248" width="5.2938" height="1.1029" style="fill:#474f59;"></rect>
        <rect x="263.6807" y="179.3719" width="5.2938" height="1.1026" style="fill:#474f59;"></rect>
        <rect x="263.6807" y="189.5191" width="5.2938" height="1.1026" style="fill:#474f59;"></rect>
        <rect x="263.6807" y="199.6661" width="5.2938" height="1.1026" style="fill:#474f59;"></rect>
        <rect x="263.6807" y="209.813" width="5.2938" height="1.1029" style="fill:#515252;"></rect>
        <rect x="263.6807" y="219.96" width="5.2938" height="1.1026" style="fill:#515252;"></rect>
        <rect x="263.6807" y="230.1071" width="5.2938" height="1.1026" style="fill:#474f59;"></rect>
        <rect x="263.6807" y="240.2542" width="5.2938" height="1.1026" style="fill:#474f59;"></rect>
        <rect x="263.6807" y="77.9017" width="5.2938" height="1.1026" style="fill:#515252;"></rect>
        <path d="M285.0972,69.6517v-8.5425h-22.3356c-1.3373-.0002-2.6688,.1769-3.9595,.5267l-29.0645,7.8808c-3.5642,1.146-6.4035,3.8674-7.6996,7.3798h65.8162s11.2335-.5187,14.4619-7.2453l-17.219,.0005Z" style="fill:#dbdbdb;"></path>
        <polygon points="222.8223 112.1707 225.6811 118.103 258.6227 127.6355 258.6227 168.7321 267.4138 168.7321 267.4138 112.1707 222.8223 112.1707" style="fill:#d9d8d7;"></polygon>
        <rect x="277.3463" y="112.1713" width="8.5845" height="56.5604" style="fill:#d9d8d7;"></rect>
        <path d="M288.344,129.7517h2.5328c.4276,0,.7743,.3467,.7743,.7743v5.6987c0,.4276-.3467,.7743-.7743,.7743h-2.5334c-.4272,0-.7735-.3463-.7735-.7735v-5.7c.0001-.4274,.3467-.7738,.7741-.7738Z" style="fill:#515252;"></path>
        <rect x="21.2062" y="243.753" width="266.0349" height="12.099" style="fill:#fb3;"></rect>
        <rect x="21.2062" y="255.8522" width="266.0349" height="12.0993" style="fill:#e5a92f;"></rect>
        <polygon points="287.2416 243.7535 287.2416 267.9512 306.4605 260.0676 306.4605 251.6371 287.2416 243.7535" style="fill:#f3f2f2;"></polygon>
        <polygon points="306.4605 251.6371 306.4605 260.0676 316.7384 255.8517 306.4605 251.6371" style="fill:#474f59;"></polygon>
        <rect x="15.5941" y="243.753" width="5.6121" height="24.1983" style="fill:#f3f2f2;"></rect>
        <path d="M5.8472,243.7529c-3.2291,0-5.8469,2.6175-5.8472,5.8466v12.5054c.0004,3.229,2.6182,5.8464,5.8472,5.8464H15.5947v-24.1983H5.8472Z" style="fill:#de1b29;"></path>
        <rect x="190.781" y="127.3547" width="26.8051" height="26.8048" style="fill:#b5d7ff;"></rect>
        <rect x="221.1682" y="127.3547" width="26.8051" height="26.8048" style="fill:#004aa0;"></rect>
      </g>
    </g>
  </g>
</svg>
