<?xml version="1.0" encoding="UTF-8"?><svg id="Layer_2" xmlns="http://www.w3.org/2000/svg" width="67.54" height="42.22" viewBox="0 0 67.54 42.22"><defs><style>.cls-1{fill:#fff;}.cls-2{fill:#b5d7ff;}.cls-3{fill:#de1b29;}.cls-4{fill:#404040;}</style></defs><g id="Layer_1-2"><g><rect class="cls-1" x="1.53" y="1.53" width="64.47" height="39.15"/><polygon class="cls-2" points="43.5 27.24 65.05 39.76 66.01 2.8 16.23 3 43.5 27.24"/><polygon class="cls-3" points="33.77 28.37 24.22 20.04 3.13 40.69 66.01 40.69 43.69 20.41 33.77 28.37"/><g><rect class="cls-4" x="53.04" y="14.76" width="3.07" height="31.03" transform="translate(-4.5 50.4) rotate(-47.84)"/><polygon class="cls-4" points="33.77 29.2 .51 2.73 2.42 .33 33.77 25.28 65.12 .33 67.03 2.73 33.77 29.2"/><path class="cls-4" d="M67.54,42.22H0V0H67.54V42.22ZM3.07,39.15h61.4V3.07H3.07V39.15Z"/><rect class="cls-4" x="-2.52" y="28.83" width="30.73" height="3.07" transform="translate(-17.06 16.49) rotate(-42.18)"/></g></g></g></svg>