<svg xmlns="http://www.w3.org/2000/svg" width="21.803" height="21.803" viewBox="0 0 21.803 21.803">
  <path id="facebook-square-brands" d="M19.467,32H2.336A2.336,2.336,0,0,0,0,34.336V51.467A2.336,2.336,0,0,0,2.336,53.8h6.68V46.391H5.95V42.9H9.016V40.242c0-3.025,1.8-4.7,4.559-4.7a18.575,18.575,0,0,1,2.7.236v2.969H14.755a1.745,1.745,0,0,0-1.967,1.885V42.9h3.347L15.6,46.391H12.788V53.8h6.68A2.336,2.336,0,0,0,21.8,51.467V34.336A2.336,2.336,0,0,0,19.467,32Z" transform="translate(0 -32)" fill="#545454"/>
</svg>
