<svg xmlns="http://www.w3.org/2000/svg" width="21.47" height="21.47" viewBox="0 0 21.47 21.47">
  <path id="instagram-square-brands" d="M10.735,40.179a2.556,2.556,0,1,0,2.557,2.557A2.556,2.556,0,0,0,10.735,40.179Zm5.977-1.965a2.588,2.588,0,0,0-1.457-1.457,17.008,17.008,0,0,0-4.519-.308,16.881,16.881,0,0,0-4.52.308,2.588,2.588,0,0,0-1.457,1.457,17.041,17.041,0,0,0-.308,4.521,16.974,16.974,0,0,0,.31,4.521,2.588,2.588,0,0,0,1.457,1.457,17.01,17.01,0,0,0,4.52.308,16.876,16.876,0,0,0,4.519-.308,2.588,2.588,0,0,0,1.457-1.457,16.9,16.9,0,0,0,.308-4.521,16.912,16.912,0,0,0-.308-4.521Zm-5.977,8.451a3.925,3.925,0,1,1,2.78-1.15,3.93,3.93,0,0,1-2.78,1.15Zm4.092-7.107a.912.912,0,1,1,.65-.268.917.917,0,0,1-.65.268ZM19.17,32H2.3A2.3,2.3,0,0,0,0,34.3V51.17a2.3,2.3,0,0,0,2.3,2.3H19.17a2.3,2.3,0,0,0,2.3-2.3V34.3a2.3,2.3,0,0,0-2.3-2.3Zm-.82,13.9a4.56,4.56,0,0,1-1.239,3.211A4.562,4.562,0,0,1,13.9,50.348c-1.266.071-5.06.071-6.326,0a4.568,4.568,0,0,1-3.211-1.239A4.546,4.546,0,0,1,3.124,45.9c-.071-1.266-.071-5.061,0-6.326a4.545,4.545,0,0,1,1.239-3.211,4.57,4.57,0,0,1,3.211-1.235c1.266-.071,5.06-.071,6.326,0a4.563,4.563,0,0,1,3.211,1.239,4.562,4.562,0,0,1,1.239,3.213C18.421,40.839,18.421,44.631,18.349,45.9Z" transform="translate(0 -32)" fill="#545454"/>
</svg>
