<?xml version="1.0" encoding="UTF-8"?><svg id="Layer_2" xmlns="http://www.w3.org/2000/svg" width="82.7" height="59.8" viewBox="0 0 82.7 59.8"><defs><style>.cls-1{fill:#fff;}.cls-2{fill:#b5d7ff;}.cls-3{fill:#de1b29;}.cls-4{fill:#404040;}</style></defs><g id="Layer_1-2"><g><g><path class="cls-1" d="M11.58,39.88c-4.6,0-8.34,3.74-8.34,8.34s3.74,8.34,8.34,8.34,8.35-3.74,8.35-8.34-3.74-8.34-8.35-8.34Z"/><path class="cls-1" d="M41.35,39.88c-4.6,0-8.34,3.74-8.34,8.34s3.74,8.34,8.34,8.34,8.34-3.74,8.34-8.34-3.74-8.34-8.34-8.34Z"/><path class="cls-1" d="M71.12,39.88c-4.6,0-8.34,3.74-8.34,8.34s3.74,8.34,8.34,8.34,8.34-3.74,8.34-8.34-3.74-8.34-8.34-8.34Z"/></g><path class="cls-1" d="M41.35,3.23c-4.6,0-8.35,3.74-8.35,8.34s3.74,8.34,8.35,8.34,8.34-3.74,8.34-8.34-3.74-8.34-8.34-8.34Z"/><path class="cls-3" d="M36.28,16.47c0,1.49,.33,2.89,.92,4.16,1.27,.58,2.67,.92,4.16,.92,5.5,0,9.96-4.46,9.96-9.96,0-1.48-.33-2.89-.92-4.15-1.27-.58-2.67-.92-4.16-.92-5.5,0-9.96,4.46-9.96,9.96Z"/><path class="cls-2" d="M6.51,53.12c0,1.48,.33,2.89,.92,4.15,1.27,.58,2.67,.92,4.15,.92,5.5,0,9.96-4.46,9.96-9.96,0-1.49-.33-2.89-.92-4.16-1.27-.58-2.67-.92-4.16-.92-5.5,0-9.96,4.46-9.96,9.96Z"/><path class="cls-2" d="M36.28,53.12c0,1.48,.33,2.89,.92,4.15,1.27,.58,2.67,.92,4.15,.92,5.5,0,9.96-4.46,9.96-9.96,0-1.49-.33-2.89-.92-4.16-1.27-.58-2.67-.92-4.16-.92-5.5,0-9.96,4.46-9.96,9.96Z"/><path class="cls-2" d="M66.05,53.12c0,1.48,.33,2.89,.92,4.15,1.27,.58,2.67,.92,4.16,.92,5.5,0,9.96-4.46,9.96-9.96,0-1.49-.33-2.89-.92-4.16-1.27-.58-2.67-.92-4.15-.92-5.5,0-9.96,4.46-9.96,9.96Z"/><path class="cls-4" d="M41.35,23.16c-6.38,0-11.58-5.19-11.58-11.58S34.96,0,41.35,0s11.58,5.19,11.58,11.58-5.19,11.58-11.58,11.58Zm0-19.92c-4.6,0-8.35,3.74-8.35,8.34s3.74,8.34,8.35,8.34,8.34-3.74,8.34-8.34-3.74-8.34-8.34-8.34Z"/><g><path class="cls-4" d="M11.58,59.8c-6.38,0-11.58-5.19-11.58-11.58s5.19-11.58,11.58-11.58,11.58,5.19,11.58,11.58-5.19,11.58-11.58,11.58Zm0-19.92c-4.6,0-8.34,3.74-8.34,8.34s3.74,8.34,8.34,8.34,8.35-3.74,8.35-8.34-3.74-8.34-8.35-8.34Z"/><path class="cls-4" d="M41.35,59.8c-6.38,0-11.58-5.19-11.58-11.58s5.19-11.58,11.58-11.58,11.58,5.19,11.58,11.58-5.19,11.58-11.58,11.58Zm0-19.92c-4.6,0-8.34,3.74-8.34,8.34s3.74,8.34,8.34,8.34,8.34-3.74,8.34-8.34-3.74-8.34-8.34-8.34Z"/><path class="cls-4" d="M71.12,59.8c-6.38,0-11.58-5.19-11.58-11.58s5.19-11.58,11.58-11.58,11.58,5.19,11.58,11.58-5.19,11.58-11.58,11.58Zm0-19.92c-4.6,0-8.34,3.74-8.34,8.34s3.74,8.34,8.34,8.34,8.34-3.74,8.34-8.34-3.74-8.34-8.34-8.34Z"/></g><rect class="cls-4" x="54.77" y="16.41" width="3.23" height="27.38" transform="translate(-6.18 43.15) rotate(-39.88)"/><rect class="cls-4" x="12.79" y="28.16" width="27.55" height="3.23" transform="translate(-13.32 31.09) rotate(-50.15)"/><rect class="cls-4" x="39.73" y="21.28" width="3.23" height="16.92"/></g></g></svg>