<svg xmlns="http://www.w3.org/2000/svg" width="21.47" height="21.47" viewBox="0 0 21.47 21.47">
  <path id="linkedin-brands" d="M19.936,32H1.529A1.54,1.54,0,0,0,0,33.548V51.922A1.54,1.54,0,0,0,1.529,53.47H19.936a1.544,1.544,0,0,0,1.534-1.548V33.548A1.544,1.544,0,0,0,19.936,32ZM6.489,50.4H3.307V40.157H6.494V50.4ZM4.9,38.757a1.845,1.845,0,1,1,1.845-1.845A1.846,1.846,0,0,1,4.9,38.757ZM18.417,50.4H15.235V45.419c0-1.189-.024-2.717-1.653-2.717-1.658,0-1.912,1.294-1.912,2.631V50.4H8.487V40.157H11.54v1.4h.043A3.352,3.352,0,0,1,14.6,39.9c3.22,0,3.82,2.123,3.82,4.883Z" transform="translate(0 -32)" fill="#545454"/>
</svg>
