<?xml version="1.0" encoding="UTF-8"?><svg id="Layer_2" xmlns="http://www.w3.org/2000/svg" width="101.59" height="68.15" viewBox="0 0 101.59 68.15"><defs><style>.cls-1{fill:#fff;}.cls-2{fill:#b5d7ff;}.cls-3{fill:#de1b29;}.cls-4{fill:#404040;}</style></defs><g id="Layer_1-2"><g><g><path class="cls-4" d="M10.12,20.02H0v20.77H10.12v2.52l9.08,2.21v22.63h21.21l-8.9-19.62,33.16,8.09V4.19L10.12,17.49v2.52ZM3.43,37.35v-13.9h6.68v13.9H3.43Zm31.64,27.36h-12.45v-18.36l5.12,1.25-.36,.16,7.68,16.94ZM13.55,20.19L61.22,8.56V52.24L13.55,40.61V20.19Z"/><rect class="cls-3" x="89.71" y="29.59" width="3.43" height="20.17" transform="translate(19.45 108.62) rotate(-67.23)"/><rect class="cls-3" x="81.52" y="20.63" width="20.17" height="3.43" transform="translate(-1.65 36.31) rotate(-22.22)"/><rect class="cls-3" x="69.4" y="8.24" width="20.16" height="3.43" transform="translate(39.49 79.36) rotate(-67.19)"/><rect class="cls-3" x="77.32" y="41.72" width="3.43" height="20.17" transform="translate(-13.72 33.74) rotate(-22.22)"/></g><rect class="cls-3" x="3.43" y="23.45" width="6.68" height="13.9"/><polygon class="cls-3" points="35.07 64.72 22.63 64.72 22.63 46.36 27.75 47.61 27.39 47.78 35.07 64.72"/><polygon class="cls-1" points="13.55 20.19 61.22 8.56 61.22 52.24 13.55 40.61 13.55 20.19"/><polygon class="cls-2" points="5.25 35.54 5.25 23.45 3.43 23.45 3.43 37.35 10.12 37.35 10.12 35.54 5.25 35.54"/><polygon class="cls-2" points="26.26 61.09 26.26 47.25 22.63 46.36 22.63 64.72 35.07 64.72 33.43 61.09 26.26 61.09"/><polygon class="cls-2" points="17.18 36.98 17.18 19.3 13.55 20.19 13.55 40.61 61.22 52.24 61.22 47.72 17.18 36.98"/></g></g></svg>