<?xml version="1.0" encoding="UTF-8"?><svg id="Layer_1" xmlns="http://www.w3.org/2000/svg" viewBox="0 0 24 24"><defs><style>.cls-1{fill-rule:evenodd;}</style></defs><path class="cls-1" d="M15.414,16.652,11.759,8.488c.405-.165.435-.177.884.171l4.025,3.119s.002.001.003.002c.647.502,1.33,1.004,1.966,1.52l3.094-1.848c.252-.151.343-.473.206-.733l-2.118-4.027c-.138-.262-.456-.369-.724-.244l-1.53.714c-.28.13-.579.18-.879.169-.331-.012-.662-.098-.968-.23-.45-.194-.892-.365-1.334-.536-.23-.089-.462-.179-.61-.237l-.133-.054c-.328-.133-.478-.194-.598-.194-.099,0-.214.04-.423.114l-.007.003c-.1.036-.221.079-.371.128l-2.354.78c-.75.248-.756.289-.816.727-.007.051-.015.105-.028.194l-.002.014c-.038.245-.101.507-.164.765-.152.625-.297,1.227-.038,1.502.05.053.14.099.254.134.13.04.284.063.442.065.309.003.566-.179.776-.429.225-.268.397-.615.524-.906.184-.428.204-.434.493-.524.06-.019.135-.043.23-.078.083-.032.146-.057.2-.079h0ZM10.923,15.669l-.637.956c-.09.172-.113.366-.076.548l.002.012c.044.204.164.391.35.515l.009.006c.188.123.409.158.615.117.209-.043.402-.164.529-.353.183-.274.367-.569.558-.834.122-.188.158-.409.116-.614-.042-.208-.163-.401-.352-.528l-.009-.006c-.188-.122-.409-.158-.616-.117l-.012.002c-.183.04-.353.14-.476.296h0ZM9.523,14.2l-1.025,1.539c-.124.187-.163.406-.124.612l.003.012c.042.209.163.402.352.528.187.124.407.163.612.125l.012-.003c.209-.042.402-.163.528-.352l.132-.198c.015-.027.03-.053.047-.079l.006-.01c.008-.011.017-.021.026-.03l.512-.768c.003-.009.008-.018.014-.026.015-.022.03-.044.047-.064l.433-.65c.126-.19.164-.415.122-.624-.041-.208-.163-.401-.352-.528-.19-.126-.415-.164-.624-.122-.209.042-.401.163-.528.352l-.185.278s-.003.005-.005.008c0,0-.001.002-.002.003h0ZM7.877,13.1l-1.026,1.542c-.126.19-.164.415-.122.624l.002.012c.044.204.164.391.35.515.19.126.415.164.624.122l.012-.002c.204-.044.392-.164.516-.35l1.027-1.542.004-.006c.123-.188.159-.411.118-.617l-.002-.012c-.044-.204-.164-.391-.35-.516-.19-.126-.415-.164-.624-.122l-.012.002c-.204.044-.392.164-.516.35h0ZM6.312,12.315c-.208.042-.401.163-.528.353l-.432.648c-.127.19-.164.415-.123.624.041.206.16.396.345.523l.008.005c.19.127.415.164.624.122.209-.041.401-.162.528-.352.007-.01.014-.019.022-.026l.395-.593c.005-.013.012-.026.02-.037.12-.185.157-.401.12-.604l-.003-.012c-.041-.206-.16-.397-.345-.523l-.015-.01c-.189-.123-.41-.158-.616-.117h0ZM4.012,7.129l-1.952,3.858c-.144.285-.018.634.277.759l2.864,1.223.318-.476c.175-.263.442-.431.731-.488.289-.058.599-.006.862.168l.003.003c.262.175.428.441.486.728l.002.014c.001.006.002.012.003.018l.007-.01c.172-.259.433-.425.716-.486l.015-.003c.289-.058.599-.006.862.169.259.172.425.433.485.716l.004.015c.008.04.014.081.018.122.14-.106.301-.177.469-.21.288-.058.599-.006.862.169.263.175.431.442.489.731.058.288.006.599-.169.862l-.037.055s.006-.001.009-.002l.015-.003c.285-.057.592-.007.853.163l.012.007c.262.175.429.442.487.73.057.285.008.591-.162.851-.105.172-.225.347-.343.52l.582.461c.156.121.349.167.533.144.186-.023.364-.116.488-.273l.009-.01c.118-.155.158-.35.132-.537-.027-.192-.124-.376-.28-.502l-.011-.009-.804-.631c-.069-.054-.081-.154-.027-.223.054-.069.155-.081.224-.027l.803.631.541.424c.158.124.353.172.54.149.187-.023.365-.116.491-.275.123-.158.17-.356.147-.545-.018-.143-.076-.281-.172-.394-.505-.385-1.025-.829-1.509-1.212-.069-.054-.081-.154-.026-.223.055-.069.154-.081.223-.026.609.482,1.247.964,1.843,1.459.155.118.346.163.529.14.186-.023.364-.116.488-.272l.008-.011c.12-.157.165-.35.142-.534-.024-.189-.119-.369-.278-.494-.001,0-.002-.002-.003-.003l-2.102-1.638c-.069-.054-.082-.154-.027-.223.054-.069.154-.081.223-.027l2.105,1.641.537.418c.159.124.355.172.543.149.184-.022.359-.113.483-.267l.01-.013c.126-.163.191-.345.184-.517-.006-.162-.079-.317-.228-.435-.003-.003-.007-.005-.01-.008-.669-.499-1.333-1.032-1.994-1.545l-.053-.041-4.028-3.121c-.305-.236-.323-.229-.569-.129-.061.025-.132.054-.208.083-.105.04-.184.064-.248.084-.157.05-.168.053-.295.346-.135.313-.321.687-.572.985-.266.316-.602.547-1.024.542-.188-.003-.374-.03-.532-.079-.165-.05-.304-.125-.393-.22-.377-.4-.211-1.084-.039-1.794.059-.245.12-.495.158-.739l.003-.015.027-.189c.085-.618.093-.676,1.031-.986l1.746-.578-.463-.111c-.159-.039-.235-.058-.288-.051-.047.006-.108.036-.225.094l-.172.084-2.554,1.217c-.067.032-.12.059-.172.086-.196.101-.379.195-.587.224l-.02.002c-.21.006-1.583-.574-2.327-.896-.269-.116-.581-.003-.713.258Z"/></svg>