<svg xmlns="http://www.w3.org/2000/svg" width="109.964" height="87.333" viewBox="0 0 109.964 87.333">
  <g id="green-brick-hover" transform="translate(0 0)">
    <path id="Path_1460" data-name="Path 1460" d="M80.724,1.109,0,19.407l17.79,39.385,92.174-24.327L82.434.721Z" transform="translate(0 -0.15)" fill="#008744"/>
    <path id="Path_1461" data-name="Path 1461" d="M22.462,67.657l2.7,28.691,85.017-24.589,4.453-28.43Z" transform="translate(-4.673 -9.014)" fill="#00a251"/>
    <path id="Path_1462" data-name="Path 1462" d="M3.66,52.425,20.493,92.392,17.789,63.7,0,24.316Z" transform="translate(0 -5.059)" fill="#006e37"/>
    <path id="Path_1463" data-name="Path 1463" d="M48.36,15.2q.1,3.011.192,6.023c.31,7.486,18.738,7.36,18.86-.133q.049-2.983.1-5.967Z" transform="translate(-10.061 -3.147)" fill="#006e37"/>
    <path id="Path_1464" data-name="Path 1464" d="M119.689,29.389q-.377,3.04-.755,6.079c-.992,7.989-20.235,6.244-19.656-1.789l.437-6.047Z" transform="translate(-20.652 -5.749)" fill="#006e37"/>
    <path id="Path_1465" data-name="Path 1465" d="M43.658,47.066q.1,3.053.2,6.107c.289,8.958-19.88,10.158-20.7,1.235q-.277-3.122-.554-6.244Z" transform="translate(-4.702 -9.792)" fill="#006e37"/>
    <path id="Path_1466" data-name="Path 1466" d="M10.954,24.26q.325,3.014.652,6.028c.866,7.79,19.816,6.357,19.365-1.472q-.175-3.042-.351-6.085Z" transform="translate(-2.279 -4.729)" fill="#006e37"/>
    <path id="Path_1467" data-name="Path 1467" d="M82.747,38.2l-.3,6.059c-.421,8.509-20.106,8.083-20.143-.437q-.013-3.089-.027-6.178Z" transform="translate(-12.956 -7.832)" fill="#006e37"/>
    <path id="Path_1468" data-name="Path 1468" d="M83.843,6.435q-.113,2.971-.227,5.941c-.271,7.121,17.82,8.087,18.419.989q.249-2.965.5-5.929Z" transform="translate(-17.395 -1.339)" fill="#006e37"/>
    <path id="Path_1469" data-name="Path 1469" d="M30.111,19.578c1.19,2.119.115,4.173-1.542,5.546a11.579,11.579,0,0,1-5.735,2.441c-3.346.584-9.387.221-11.437-3.439-1.186-2.118-.108-4.174,1.547-5.544a11.575,11.575,0,0,1,5.736-2.439c3.344-.583,9.378-.219,11.43,3.435" transform="translate(-2.267 -3.312)" fill="#00a251"/>
    <path id="Path_1470" data-name="Path 1470" d="M43.034,43.03c1.275,2.269.453,4.57-1.282,6.237a11.314,11.314,0,0,1-6.14,2.926c-3.817.73-10.143.139-12.426-3.918-1.277-2.268-.455-4.574,1.279-6.24a11.313,11.313,0,0,1,6.146-2.928c3.818-.729,10.143-.137,12.423,3.923" transform="translate(-4.694 -8.081)" fill="#00a251"/>
    <path id="Path_1471" data-name="Path 1471" d="M118.688,24.471c3.7,4.542-1.334,7.717-5.942,8.339-3.719.5-9.189-.41-11.825-3.645-3.7-4.541,1.332-7.717,5.94-8.339,3.72-.5,9.191.409,11.827,3.646" transform="translate(-20.73 -4.306)" fill="#00a251"/>
    <path id="Path_1472" data-name="Path 1472" d="M101.656,3.319c1.656,2.034,1.38,3.53-.554,5.2a9.418,9.418,0,0,1-5.415,2.112c-3.3.412-8.506-.269-10.9-3.206C83.128,5.393,83.4,3.9,85.339,2.221A9.431,9.431,0,0,1,90.757.109c3.3-.411,8.507.271,10.9,3.21" transform="translate(-17.413 0)" fill="#00a251"/>
    <path id="Path_1473" data-name="Path 1473" d="M66.764,11.245c1.559,2.267.905,3.732-1.036,5.375a10.4,10.4,0,0,1-5.564,2.269c-3.319.494-8.9-.055-11.154-3.321-1.561-2.267-.908-3.734,1.034-5.377a10.4,10.4,0,0,1,5.563-2.269c3.319-.493,8.908.055,11.156,3.324" transform="translate(-10.015 -1.615)" fill="#00a251"/>
    <path id="Path_1474" data-name="Path 1474" d="M81.856,33.5c1.642,2.386,1.282,4.043-.7,6.018A10.027,10.027,0,0,1,75.2,42.245c-3.763.609-9.619-.173-12.107-3.785-1.646-2.39-1.284-4.049.709-6.026a10.037,10.037,0,0,1,5.943-2.718c3.764-.611,9.625.171,12.112,3.786" transform="translate(-12.91 -6.143)" fill="#00a251"/>
  </g>
</svg>
