<svg id="red-brick" xmlns="http://www.w3.org/2000/svg" width="109.365" height="87.333" viewBox="0 0 109.365 87.333">
  <path id="Path_981" data-name="Path 981" d="M23.622,47.674l.54,6.079c.4,4.4,5.2,6.294,9.854,6.294.355,0,.709-.011,1.061-.032,4.913-.3,10.13-2.785,9.978-7.509l-.191-5.945c0-.013-.008-.025-.009-.039a4.852,4.852,0,0,0-.639-2.394,8.529,8.529,0,0,0-5.723-3.836,16.862,16.862,0,0,0-6.764-.165,11.32,11.32,0,0,0-6.171,2.947,5.608,5.608,0,0,0-1.925,4.518.326.326,0,0,0-.009.082m11.408,11.6c-6.566.409-9.854-2.611-10.128-5.586l-.316-3.563a8.86,8.86,0,0,0,5.384,3.307,16.533,16.533,0,0,0,3.805.43,15.94,15.94,0,0,0,2.961-.267A11.325,11.325,0,0,0,42.9,50.65a7,7,0,0,0,1.3-1.681l.114,3.56c.136,4.23-4.715,6.461-9.281,6.744M26.071,43.61a10.5,10.5,0,0,1,5.8-2.752,15.22,15.22,0,0,1,2.8-.247c3.285,0,7.245.944,8.9,3.883,1.477,2.63-.335,4.807-1.182,5.621a10.5,10.5,0,0,1-5.79,2.752c-3.371.645-9.53.231-11.7-3.631-1.48-2.631.332-4.809,1.18-5.624" transform="translate(-5.408 -9.13)" fill="#de1b29"/>
  <path id="Path_982" data-name="Path 982" d="M109.1,33.831,82.3.982a1.16,1.16,0,0,0-1.153-.4l-1.312.3A17.07,17.07,0,0,0,74.357,0a15.77,15.77,0,0,0-1.941.115,10.372,10.372,0,0,0-5.889,2.33A6.573,6.573,0,0,0,65,4.246L53.273,6.9a17.09,17.09,0,0,0-7.9-.752,11.379,11.379,0,0,0-5.993,2.47,7.751,7.751,0,0,0-1.642,1.8l-12.372,2.8a15.447,15.447,0,0,0-5.556-.957,17.034,17.034,0,0,0-2.872.234,12.256,12.256,0,0,0-6.124,2.624,7.58,7.58,0,0,0-1.566,1.752L.9,18.775A1.153,1.153,0,0,0,.01,20.054L3.573,47.417a1.168,1.168,0,0,0,.081.3L20.041,86.625a1.158,1.158,0,0,0,1.389.663l82.764-23.936a1.162,1.162,0,0,0,.822-.933l4.335-27.677a1.159,1.159,0,0,0-.247-.911M19.782,13.806c3.059,0,6.727.82,8.158,3.368,1.3,2.314-.556,4.219-1.414,4.931a10.831,10.831,0,0,1-5.41,2.3c-3.16.552-8.873.18-10.746-3.163-1.3-2.314.56-4.218,1.419-4.929A10.836,10.836,0,0,1,17.2,14.015a15.291,15.291,0,0,1,2.582-.209m77.41,11.006c-.592,1.5-2.834,3.231-6.505,3.727-3.759.507-8.8-.5-11.174-3.415-1.1-1.348-1.421-2.623-.961-3.789.593-1.5,2.833-3.231,6.5-3.727a14.49,14.49,0,0,1,1.934-.126c3.406,0,7.259,1.106,9.242,3.542,1.1,1.348,1.421,2.623.96,3.788m-18.856-.083a7.268,7.268,0,0,0,.6.864c2.135,2.621,6.239,3.812,9.844,3.812a15.144,15.144,0,0,0,2-.13,10.918,10.918,0,0,0,6.115-2.72l-.433,3.489c-.452,3.638-5.3,5.089-9.859,4.643-4.3-.422-8.806-2.577-8.536-6.312ZM66.137,8.2c.1.14.205.281.322.424,2.067,2.536,6.106,3.359,9.156,3.359a14.62,14.62,0,0,0,1.789-.1,9.474,9.474,0,0,0,5.468-2.144,8.227,8.227,0,0,0,.624-.6l-.312,3.7c-.271,3.21-4.74,4.624-9.021,4.362-4.021-.246-8.293-2-8.168-5.28ZM82.88,4.623h0c1.436,1.763,1.3,3-.494,4.549a8.816,8.816,0,0,1-5.075,1.969c-2.86.356-7.959-.145-10.276-2.987-1.439-1.764-1.305-3,.491-4.553A8.822,8.822,0,0,1,72.6,1.633a14.161,14.161,0,0,1,1.729-.1c2.874,0,6.648.757,8.547,3.091M80.929,2.2l.336-.076.394.483q-.354-.219-.73-.406M55.155,15.482a9.831,9.831,0,0,1-5.232,2.125c-5.576.83-9.333-1.385-10.5-3.077-1.267-1.84-1.021-3.08.941-4.74A9.827,9.827,0,0,1,45.6,7.665a16.1,16.1,0,0,1,2.375-.18c4.269,0,7.135,1.819,8.125,3.259,1.265,1.84,1.019,3.079-.942,4.738m1.52-.446-.058,3.586c-.056,3.476-4.522,5.115-8.646,5.167-4.363.06-8.831-1.661-8.971-5.043l-.118-3.707c1.872,2.608,5.774,3.459,8.911,3.459a15.505,15.505,0,0,0,2.24-.156,10.507,10.507,0,0,0,5.6-2.293,9,9,0,0,0,1.04-1.013M28.5,20.922l.214,3.705c.209,3.625-4.239,5.66-8.461,6.016-4.5.38-9.256-1.095-9.651-4.644l-.4-3.685c1.8,2.279,5.27,3.047,8.269,3.047a16.4,16.4,0,0,0,2.768-.227A11.526,11.526,0,0,0,27,22.677a6.524,6.524,0,0,0,1.5-1.755m-19.114-2.5a3.886,3.886,0,0,0-.155,1.766c0,.009,0,.018,0,.026l.635,5.869a5.456,5.456,0,0,0,3.641,4.372,13.54,13.54,0,0,0,5.327.994c.488,0,.984-.021,1.483-.063,4.569-.385,9.377-2.678,9.14-6.8l-.342-5.923A.3.3,0,0,0,29.1,18.6a4.025,4.025,0,0,0-.514-1.789,6.1,6.1,0,0,0-2.25-2.233l11.618-2.633a3.143,3.143,0,0,0,.135,1.614l.166,5.215a5.22,5.22,0,0,0,3.218,4.414,13.987,13.987,0,0,0,6.28,1.346h.224c4.473-.057,9.316-1.927,9.38-5.9l.079-4.859a3.677,3.677,0,0,0-.729-3.453,6.8,6.8,0,0,0-2.4-2.085l11.013-2.5a2.793,2.793,0,0,0,.125,1.117l-.192,5.03c-.144,3.775,4.495,5.782,8.865,6.05q.545.034,1.081.033a13.541,13.541,0,0,0,5.37-1c2.047-.9,3.208-2.31,3.356-4.071l.42-4.981a2.7,2.7,0,0,0,.18-1.793l10.434,12.79a15.475,15.475,0,0,0-10-2.042c-2.86.386-6.163,1.832-7.1,4.19a3.665,3.665,0,0,0-.159,2.107l-.372,5.153c-.305,4.231,4.558,6.649,9.205,7.1.581.057,1.158.085,1.724.085a13.476,13.476,0,0,0,5.2-.95A5.577,5.577,0,0,0,97.2,30.135l.608-4.9c.022-.05.049-.1.07-.15a3.7,3.7,0,0,0,.063-2.51l9.608,11.776L18.684,57.806l-17-37.64Zm8.72,39.924,2.4,25.458L5.083,47.17,1.85,22.339Zm3.324,27.352-2.561-27.17,88.877-23.457-4.211,26.881Z" transform="translate(0 0)" fill="#de1b29"/>
  <path id="Path_983" data-name="Path 983" d="M63.274,43.2c.02,4.516,5.206,6.69,10.015,6.8q.2,0,.4,0a13.993,13.993,0,0,0,6.508-1.455,5.844,5.844,0,0,0,3.432-4.906l.245-4.966c.482-1.292.2-2.584-.842-4.092-2.639-3.838-8.717-4.4-12.157-3.842a10.21,10.21,0,0,0-5.987,2.749c-1.585,1.572-2.114,2.984-1.634,4.563Zm19.61.406c-.14,2.822-3.191,5.794-9.579,5.65-6.364-.143-9.275-3.24-9.288-6.059L64,39.6c.05.077.1.153.15.232,2.092,3.039,6.342,4.023,9.727,4.023a15.344,15.344,0,0,0,2.424-.183,10.206,10.206,0,0,0,6-2.755,9.348,9.348,0,0,0,.759-.847ZM65.409,34.014a9.361,9.361,0,0,1,5.583-2.543,14.538,14.538,0,0,1,2.321-.18c3.489,0,7.346,1.153,9.1,3.71,1.432,2.081,1.264,3.49-.641,5.384a9.361,9.361,0,0,1-5.592,2.549c-3.923.635-9.257-.386-11.42-3.529-1.436-2.084-1.267-3.495.645-5.391" transform="translate(-14.448 -6.998)" fill="#de1b29"/>
</svg>
