<?xml version="1.0" encoding="UTF-8"?><svg id="Layer_2" xmlns="http://www.w3.org/2000/svg" width="67.69" height="83.38" viewBox="0 0 67.69 83.38"><defs><style>.cls-1{fill:#fff;}.cls-2{fill:#b5d7ff;}.cls-3{fill:#de1b29;}.cls-4{fill:#404040;}</style></defs><g id="Layer_1-2"><g><path class="cls-1" d="M1.55,36.38v45.06H66.01V36.38H1.55Zm36.89,24.26s-.13,6.26-.13,8.17-1.28,3.7-4.34,3.7-3.83-1.91-3.83-3.83v-7.79s-3.83-3.83-3.83-7.4,2.17-7.66,7.66-7.66,7.79,4.09,7.79,8.43-3.32,6.38-3.32,6.38Z"/><path class="cls-2" d="M13.16,45.7v35.74h52.85V45.7H13.16Zm25.28,14.94s-.13,6.26-.13,8.17-1.28,3.7-4.34,3.7-3.83-1.91-3.83-3.83v-7.79s-3.83-3.83-3.83-7.4,2.17-7.66,7.66-7.66,7.79,4.09,7.79,8.43-3.32,6.38-3.32,6.38Z"/><path class="cls-3" d="M54.78,36.51v-14.55c0-4.21-4.34-19.66-20.3-19.66S13.29,15.7,13.29,21.57v15.06h9.45v-14.68c0-6.89,3.96-10.47,11.23-10.47,6.13,0,11.49,3.7,11.49,11.23v13.91l9.32-.13Z"/><g><path class="cls-4" d="M27.75,61.61v6.5c0,3.43,2.79,6.22,6.22,6.22s6.22-2.79,6.22-6.22v-6.5c2.42-1.89,3.83-4.76,3.83-7.88,0-5.54-4.51-10.05-10.05-10.05s-10.05,4.51-10.05,10.05c0,3.12,1.41,5.99,3.83,7.88Zm6.22-13.94c3.34,0,6.06,2.72,6.06,6.06,0,2.11-1.08,4.03-2.88,5.14-.59,.36-.95,1.01-.95,1.7v7.53c0,1.23-1,2.23-2.23,2.23s-2.23-1-2.23-2.23v-7.53c0-.69-.36-1.34-.95-1.7-1.8-1.11-2.88-3.03-2.88-5.14,0-3.34,2.72-6.06,6.06-6.06Z"/><path class="cls-4" d="M56.85,34.84v-11.96C56.85,10.26,46.59,0,33.97,0S11.1,10.26,11.1,22.87v11.96H0v48.54H67.69V34.84h-10.84ZM15.09,22.87C15.09,12.46,23.56,3.99,33.97,3.99s18.88,8.47,18.88,18.88v11.96h-5.25v-11.96c0-7.52-6.11-13.63-13.63-13.63s-13.63,6.11-13.63,13.63v11.96h-5.25v-11.96Zm28.52,11.96H24.34v-11.96c0-5.31,4.32-9.64,9.64-9.64s9.64,4.32,9.64,9.64v11.96Zm20.73,45.19H3.35V38.19h60.99v41.84Z"/></g></g></g></svg>