<?xml version="1.0" encoding="UTF-8"?><svg id="Layer_2" xmlns="http://www.w3.org/2000/svg" width="73.24" height="63.03" viewBox="0 0 73.24 63.03"><defs><style>.cls-1{fill:#fff;}.cls-2{fill:#b5d7ff;}.cls-3{fill:#de1b29;}.cls-4{fill:#404040;}</style></defs><g id="Layer_1-2"><g><g><path class="cls-4" d="M55.38,0h0c-6.27,0-11.7,3.37-14.78,8.35H9.07c-.37,0-.74,.13-1.02,.38L.46,15.57c-.63,.58-.61,1.72,.05,2.28l9.87,8.35c.57,.48,1.51,.45,2.04-.07l3.49-3.49,3.49,3.49c.56,.55,1.57,.55,2.14,0l3.49-3.49,3.49,3.49c.28,.28,.67,.45,1.07,.45h11.06c3.08,4.96,8.5,8.35,14.76,8.35,9.63,0,17.46-7.84,17.46-17.46C72.47,5.36,62.5-.23,55.38,0Zm0,31.89c-5.49,0-10.25-3.07-12.69-7.57-.26-.47-.79-.78-1.33-.78h-11.15l-4.13-4.13c-.56-.55-1.57-.55-2.14,0l-3.49,3.49-3.49-3.49c-.56-.55-1.57-.55-2.14,0l-3.58,3.58-7.47-6.33,5.86-5.27h31.72c.54,0,1.07-.33,1.33-.81,3.34-5.49,8.05-7.45,12.69-7.54,7.98,0,14.43,6.44,14.43,14.43s-6.44,14.43-14.43,14.43Z"/><path class="cls-3" d="M55.38,31.89c-5.49,0-10.25-3.07-12.69-7.57-.26-.47-.79-.78-1.33-.78h-11.15l-4.13-4.13c-.56-.55-1.57-.55-2.14,0l-3.49,3.49-3.49-3.49c-.56-.55-1.57-.55-2.14,0l-3.58,3.58-7.47-6.33,5.86-5.27h31.72c.54,0,1.07-.33,1.33-.81,3.34-5.49,8.05-7.45,12.69-7.54,7.98,0,14.43,6.44,14.43,14.43s-6.44,14.43-14.43,14.43Z"/></g><g><path class="cls-1" d="M46.42,16.14c-3.47,3.09-5.77,7.63-4.76,13.98,.12,.53-.08,1.12-.49,1.48l-24.13,20.59-1.04,7.81,9.8-.03,.4-5.05c.07-.79,.84-1.44,1.62-1.39l4.92,.39,.39-4.92c.07-.79,.84-1.44,1.62-1.39l5.82,.46,8.48-7.24c.41-.35,1.01-.46,1.52-.27,4.78,1.83,10.39,1.08,14.57-2.48,6.07-5.18,6.79-14.26,1.61-20.34-5.18-6.07-14.26-6.79-20.34-1.61Zm15.38,9.83c-1.29,1.1-3.18,.95-4.28-.34s-.95-3.18,.34-4.28c1.29-1.1,3.18-.95,4.28,.34s.95,3.18-.34,4.28Z"/><path class="cls-2" d="M49.86,18.41c-3.47,3.09-5.77,7.63-4.76,13.98,.12,.53-.08,1.12-.49,1.48l-24.13,20.59-.93,6.96,7.07-.06,.79-6.55,6.51,.15,.65-5.93,6.87,.18,8.64-7.38s8.85,3.69,16.33-2.69c6.55-5.59,6.57-13.86,2.62-20.33-5.3-4.94-13.54-5.23-19.18-.41Zm11.94,7.57c-1.29,1.1-3.18,.95-4.28-.34s-.95-3.18,.34-4.28c1.29-1.1,3.18-.95,4.28,.34s.95,3.18-.34,4.28Z"/><path class="cls-4" d="M44.45,13.83h0c-4.77,4.07-6.71,10.16-5.82,15.95L14.64,50.25c-.28,.24-.48,.58-.53,.95l-1.34,10.13c-.1,.85,.66,1.71,1.51,1.7l12.93-.06c.75,0,1.44-.64,1.51-1.38l.39-4.92,4.92,.39c.79,.06,1.56-.6,1.62-1.39l.39-4.92,4.92,.39c.39,.03,.8-.1,1.1-.35l8.41-7.18c5.57,1.77,11.89,.84,16.65-3.23,7.32-6.25,8.19-17.3,1.95-24.62-8.15-8.96-19.36-6.75-24.62-1.95Zm20.7,24.25c-4.17,3.56-9.79,4.32-14.57,2.48-.5-.19-1.11-.08-1.52,.27l-8.48,7.24-5.82-.46c-.79-.06-1.56,.6-1.62,1.39l-.39,4.92-4.92-.39c-.79-.06-1.56,.6-1.62,1.39l-.4,5.05-9.8,.03,1.04-7.81,24.13-20.59c.41-.36,.6-.95,.49-1.48-1.02-6.35,1.29-10.89,4.76-13.98,6.07-5.18,15.15-4.47,20.34,1.61,5.18,6.07,4.47,15.15-1.61,20.34Z"/><path class="cls-4" d="M55.88,19.05c-2.54,2.17-2.84,6.03-.68,8.56,2.17,2.54,6.03,2.84,8.56,.68,2.54-2.17,2.84-6.03,.68-8.56-2.17-2.54-6.03-2.84-8.56-.68Zm5.91,6.93c-1.29,1.1-3.18,.95-4.28-.34s-.95-3.18,.34-4.28c1.29-1.1,3.18-.95,4.28,.34s.95,3.18-.34,4.28Z"/></g></g></g></svg>