<?xml version="1.0" encoding="UTF-8"?><svg id="Layer_2" xmlns="http://www.w3.org/2000/svg" width="82.04" height="50.72" viewBox="0 0 82.04 50.72"><defs><style>.cls-1{fill:#fff;}.cls-2{fill:#b5d7ff;}.cls-3{fill:#de1b29;}.cls-4{fill:#404040;}</style></defs><g id="Layer_1-2"><g><rect class="cls-1" x="11.4" y="2.79" width="59.32" height="33.8"/><polygon class="cls-3" points="77.91 48.87 71.6 41.09 70.27 37.67 10.44 36.59 10.44 41.52 4.12 48.87 77.91 48.87"/><g><g><path class="cls-4" d="M82.04,50.72H0l8.94-10.2V0H73.1V40.52l8.94,10.2ZM6.62,47.72H75.42l-5.32-6.07V3H11.94V41.65l-5.32,6.07Z"/><rect class="cls-4" x="10.44" y="36.17" width="61.17" height="3"/><rect class="cls-2" x="22.82" y="42.82" width="36.41" height="3"/></g><g><rect class="cls-4" x="55.27" y="18.66" width="3" height="14.62" transform="translate(1.88 55.7) rotate(-53.02)"/><polygon class="cls-4" points="20.39 22.12 18.46 19.82 31.27 9.05 42.91 9.7 47.65 15.33 45.36 17.27 41.44 12.62 32.29 12.11 20.39 22.12"/><polygon class="cls-4" points="42.54 32.54 31.61 22.83 20.2 29.76 18.65 27.19 31.95 19.11 41.81 27.88 52.66 9.61 63.45 16.84 61.78 19.33 53.62 13.86 42.54 32.54"/></g></g></g></g></svg>