<?xml version="1.0" encoding="UTF-8"?><svg id="Layer_2" xmlns="http://www.w3.org/2000/svg" width="63.1" height="63.1" viewBox="0 0 63.1 63.1"><defs><style>.cls-1{fill:#fff;}.cls-2{fill:#b5d7ff;}.cls-3{fill:#de1b29;}.cls-4{fill:#404040;}</style></defs><g id="Layer_1-2"><g><path class="cls-1" d="M1.66,24.62C1.66,11.94,11.94,1.66,24.62,1.66s22.96,10.28,22.96,22.96-10.28,22.96-22.96,22.96S1.66,37.3,1.66,24.62Z"/><path class="cls-2" d="M46.03,24.62c0-4.2-1.23-8.11-3.32-11.42-3.31-2.11-7.23-3.35-11.45-3.35-11.82,0-21.41,9.58-21.41,21.41,0,4.22,1.24,8.14,3.35,11.45,3.31,2.09,7.21,3.32,11.42,3.32,11.82,0,21.41-9.58,21.41-21.41Z"/><g><rect class="cls-3" x="47.59" y="36.99" width="6.64" height="27.84" transform="translate(-21.09 50.91) rotate(-45)"/><path class="cls-4" d="M24.62,49.25C11.05,49.25,0,38.2,0,24.62S11.05,0,24.62,0s24.62,11.05,24.62,24.62-11.05,24.62-24.62,24.62Zm0-45.93C12.88,3.32,3.32,12.88,3.32,24.62s9.56,21.3,21.3,21.3,21.3-9.56,21.3-21.3S36.37,3.32,24.62,3.32Z"/></g><circle class="cls-1" cx="20.62" cy="14.45" r="7.32"/><path class="cls-1" d="M28.28,21.77c0-2.02,1.64-3.66,3.66-3.66s3.66,1.64,3.66,3.66-1.64,3.66-3.66,3.66-3.66-1.64-3.66-3.66Z"/></g></g></svg>