<svg xmlns="http://www.w3.org/2000/svg" fill="none" viewBox="0 0 24 24" stroke="#facc15" stroke-width="2">
  <path stroke-linecap="round" stroke-linejoin="round" d="M11.049 2.927c.3-.921 1.603-.921 1.902 0l2.104 6.49a1 1 0 00.95.69h6.828c.969 0 1.371 1.24.588 1.81l-5.52 4.01a1 1 0 00-.364 1.118l2.104 6.49c.3.921-.755 1.688-1.54 1.118l-5.52-4.01a1 1 0 00-1.175 0l-5.52 4.01c-.784.57-1.838-.197-1.539-1.118l2.104-6.49a1 1 0 00-.364-1.118l-5.52-4.01c-.783-.57-.38-1.81.588-1.81h6.828a1 1 0 00.95-.69l2.104-6.49z"></path>
</svg>
