<svg id="Layer_1" data-name="Layer 1" xmlns="http://www.w3.org/2000/svg" viewBox="0 0 512 512"><defs><style>.cls-1{fill:#8dd1d0;}.cls-2{fill:#0870a8;}.cls-3{fill:#0c4e87;}.cls-4{fill:#6fc069;}</style></defs><path class="cls-1" d="M377.5,121.793l-86.859,86.858c-1.86,1.591-3.624,3.191-5.392,4.721-1.783.6-4.578-1.54-9.649-3.037-12.89-2.92-24.9-1.465-35.921,6.967-12.321,9.726-20.42,30.305-10.044,44.573,5.838,8.431,17.511,12.322,26.59,8.431a14.44,14.44,0,0,0,8.43-13.619c5.838,9.727-3.89,19.456-12.969,22.05-6.485,1.3-13.619-.649-19.456-3.892-21.4-13.618-18.158-42.8-4.16-60.13-1.423-1.754-2.926-3.532-4.335-5.435L135.6,121.145,256.229.519Z"/><path class="cls-2" d="M121.45,135.332l86.858,86.859c1.592,1.86,3.191,3.625,4.721,5.391.6,1.784.073,3.773-1.423,8.843-2.92,12.891-.659,27.316,7.772,38.34,9.727,12.322,27.886,18.808,42.154,8.432,8.431-5.837,12.322-17.511,8.431-26.589a14.439,14.439,0,0,0-13.619-8.431c9.728-5.837,19.456,3.891,22.051,12.97,1.3,6.484-.649,13.618-3.893,19.455-13.618,21.4-42.8,18.159-60.13,4.16-1.754,1.423-3.532,2.926-5.435,4.335L120.8,377.232.175,256.607Z"/><path class="cls-3" d="M134.462,390.244S184.8,339.1,220.514,303.386a39.786,39.786,0,0,1,6.2-4.72c1.784-.6,3.771,1.54,8.843,3.036,12.889,2.92,27.314.659,38.339-7.772,12.322-9.727,18.808-29.5,8.431-43.766-5.837-8.432-17.51-12.324-26.589-8.432a14.439,14.439,0,0,0-8.43,13.619c-5.837-9.727,3.89-19.456,12.969-22.05,6.485-1.3,13.619.649,19.455,3.892,21.4,13.618,18.159,42.8,4.16,60.129,1.424,1.755,2.928,3.533,4.335,5.435l88.136,88.136L255.738,511.519Z"/><path class="cls-4" d="M390.516,376.706l-86.858-86.859c-1.591-1.86-3.19-3.625-4.72-5.392-.6-1.784.733-3.772,2.23-8.843a46.952,46.952,0,0,0-8.579-38.34c-9.728-12.321-27.886-18.807-42.154-8.431C242,234.678,238.112,246.351,242,255.43a14.438,14.438,0,0,0,13.619,8.431c-9.727,5.837-19.456-3.891-22.051-12.97-1.3-6.485.65-13.619,3.893-19.455,13.618-21.4,42.8-18.159,60.129-4.16,1.755-1.424,3.533-2.927,5.435-4.335l88.136-88.136L511.791,255.43Z"/></svg>