<?xml version="1.0" encoding="UTF-8"?>
<svg xmlns="http://www.w3.org/2000/svg" id="Layer_2" width="315.78" height="270" viewBox="0 0 315.78 270">
  <defs>
    <style>.cls-1{fill-rule:evenodd;}.cls-1,.cls-2{fill:#004aa0;}.cls-3,.cls-4{fill:#fff;}.cls-4{stroke:#00a251;stroke-miterlimit:10;stroke-width:6px;}.cls-5{fill:#b5d7ff;}.cls-6{fill:#fb3;}.cls-7{fill:#b7c0bf;}.cls-8{fill:#424143;}.cls-9{fill:#00a251;}.cls-10{fill:#de1b29;}.cls-11{fill:#cccbca;}.cls-12{fill:#002c68;}.cls-13{fill:#404040;}.cls-14{fill:#f2f2f2;}.cls-15{fill:#161e2e;}</style>
  </defs>
  <g id="Layer_1-2">
    <g>
      <ellipse class="cls-5" cx="175.78" cy="135" rx="140" ry="135"></ellipse>
      <path class="cls-2" d="m19.52,112.89l-5.72,5.41V50.79l5.72,5.41c.88.83,2.26.79,3.1-.09.83-.88.79-2.26-.09-3.1l-9.42-8.89s-.09-.07-.13-.1c-.06-.05-.11-.1-.17-.14-.07-.04-.14-.08-.2-.11-.06-.03-.11-.06-.17-.08-.08-.03-.17-.06-.25-.08-.05-.01-.1-.03-.15-.04-.28-.05-.57-.05-.85,0-.06.01-.11.03-.17.05-.08.02-.16.04-.23.07-.06.03-.12.06-.18.09-.06.03-.13.06-.19.1-.06.04-.12.09-.18.14-.04.03-.09.06-.13.1L.69,53.01c-.88.83-.92,2.22-.09,3.1.43.46,1.01.69,1.59.69.54,0,1.08-.2,1.5-.6l5.72-5.41v67.51l-5.72-5.41c-.88-.83-2.26-.79-3.1.09-.83.88-.79,2.27.09,3.1l9.42,8.89s.09.07.13.1c.06.05.12.1.18.14.06.04.13.07.19.1.06.03.12.07.18.09.08.03.15.05.23.07.06.02.11.04.17.05.14.03.28.04.42.04s.28-.02.42-.04c.06-.01.11-.03.17-.05.08-.02.16-.04.23-.07.06-.03.12-.06.18-.09.06-.03.13-.06.19-.1.06-.04.12-.09.18-.14.04-.03.09-.06.13-.1l9.42-8.89c.88-.83.92-2.22.09-3.1-.83-.88-2.22-.92-3.1-.09Z"></path>
      <path class="cls-2" d="m150.57,28.7c.04-.06.07-.13.1-.19.03-.06.06-.12.09-.18.03-.08.05-.16.07-.24.02-.06.04-.11.05-.17.05-.28.05-.57,0-.84-.01-.06-.03-.11-.05-.17-.02-.08-.04-.16-.07-.24-.03-.06-.06-.12-.09-.18-.03-.06-.06-.13-.1-.19-.04-.06-.09-.12-.14-.18-.04-.04-.06-.09-.1-.13l-8.89-9.42c-.83-.88-2.22-.92-3.1-.09-.88.83-.92,2.22-.09,3.1l5.41,5.72H34.35l5.41-5.72c.83-.88.79-2.26-.09-3.1-.88-.83-2.26-.79-3.1.09l-8.89,9.42s-.07.09-.1.13c-.05.06-.1.12-.14.18-.04.06-.07.13-.1.19-.03.06-.07.12-.09.18-.03.08-.05.16-.07.24-.02.06-.04.11-.05.17-.05.28-.05.56,0,.84.01.06.03.11.05.17.02.08.04.16.07.24.03.06.06.12.09.18.03.06.06.13.1.19.04.06.09.12.14.18.04.04.06.09.1.13l8.89,9.42c.43.46,1.01.69,1.59.69.54,0,1.08-.2,1.5-.6.88-.83.92-2.22.09-3.1l-5.41-5.72h109.31l-5.41,5.72c-.83.88-.79,2.26.09,3.1.42.4.96.6,1.5.6.58,0,1.16-.23,1.59-.69l8.89-9.42s.07-.09.1-.13c.05-.06.1-.11.14-.18Z"></path>
      <g>
        <rect class="cls-14" x="86.64" y="67.54" width="221.31" height="160.34"></rect>
        <rect class="cls-8" x="86.64" y="67.63" width="221.31" height="16.07"></rect>
        <rect class="cls-8" x="86.64" y="224.35" width="221.31" height="4.03"></rect>
        <path class="cls-6" d="m295.16,78.93c-.73,0-1.44-.28-1.96-.8-1.06-1.09-1.06-2.83,0-3.93,1.1-1.03,2.81-1.03,3.92,0,.52.52.82,1.22.82,1.96-.01.74-.31,1.44-.82,1.96-.52.52-1.22.81-1.96.8Z"></path>
        <path class="cls-9" d="m275.43,76.15c.01-1.54,1.26-2.78,2.79-2.79h0c1.54,0,2.78,1.25,2.78,2.79h0c0,1.53-1.23,2.78-2.76,2.79,0,0-.01,0-.02,0h0c-1.54,0-2.79-1.24-2.79-2.78,0,0,0,0,0,0Z"></path>
        <path class="cls-10" d="m261.19,78.93c-.74.01-1.44-.28-1.96-.8-.52-.52-.83-1.22-.84-1.96-.09-1.54,1.08-2.87,2.62-2.96,1.54-.09,2.86,1.08,2.95,2.63,0,.11,0,.22,0,.33.01,1.53-1.22,2.78-2.74,2.79-.02,0-.03,0-.05,0l.02-.02Z"></path>
        <g>
          <path class="cls-10" d="m283.08,158.89c-5.41-5.99-12.79-9.75-20.78-10.59l-.6-.06v31.31l24.1,19.89.34-.51c3.54-5.36,5.41-11.6,5.41-18.05,0-8.15-3-15.95-8.46-21.99Z"></path>
          <path class="cls-15" d="m233.04,201l.38.47c6.24,7.73,15.51,12.16,25.42,12.16,8.62,0,16.75-3.33,22.9-9.38l.43-.43-23.53-19.43-25.6,16.6Z"></path>
          <path class="cls-5" d="m255.99,148.24l-.6.06c-7.99.84-15.36,4.6-20.78,10.59-5.45,6.03-8.46,13.84-8.46,21.99,0,5.21,1.18,10.19,3.52,14.8l.28.54,26.04-16.89v-31.1Z"></path>
        </g>
        <rect class="cls-11" x="170.96" y="165.32" width="42.43" height="5.22"></rect>
        <rect class="cls-11" x="170.96" y="179.2" width="42.43" height="5.21"></rect>
        <rect class="cls-11" x="170.96" y="193.1" width="42.43" height="5.22"></rect>
        <rect class="cls-5" x="156.19" y="162.84" width="9.24" height="9.61"></rect>
        <rect class="cls-10" x="156.19" y="177.03" width="9.24" height="9.59"></rect>
        <rect class="cls-13" x="156.19" y="191.19" width="9.24" height="9.61"></rect>
        <rect class="cls-7" x="102.8" y="113.7" width="170.61" height="4.26"></rect>
        <rect class="cls-7" x="102.8" y="127.92" width="181.97" height="4.26"></rect>
        <rect class="cls-7" x="102.8" y="142.13" width="121.56" height="4.26"></rect>
        <rect class="cls-7" x="102.8" y="99.49" width="193.34" height="4.27"></rect>
      </g>
      <rect class="cls-12" x="26.67" y="42.59" width="123.14" height="82.09" rx="4.1" ry="4.1"></rect>
      <circle class="cls-6" cx="54.03" cy="60.38" r="9.58"></circle>
      <path class="cls-1" d="m112.28,61.13l-36.98,37.37-12.72-12.86c-1.9-1.92-5-1.92-6.9,0l-20.81,21.03v9.81h106.72v-32.69l-22.42-22.66c-1.9-1.92-5-1.92-6.9,0h0Z"></path>
      <rect class="cls-15" x="49.01" y="163.32" width="86.25" height="47.07" rx="5.37" ry="5.37"></rect>
      <g>
        <path class="cls-3" d="m65.81,186.32l14.8-7.72v3.29c0,.25-.06.48-.19.68-.12.21-.33.38-.62.53l-6.79,3.48c-.29.15-.59.28-.91.38-.32.11-.66.2-1.02.29.36.09.7.18,1.02.29.32.11.62.23.91.38l6.79,3.5c.29.15.49.33.62.53s.19.43.19.68v3.29l-14.8-7.74v-1.87Z"></path>
        <path class="cls-3" d="m88.97,199.91c-.11.29-.26.54-.43.75-.17.21-.37.39-.6.53-.22.14-.46.25-.71.33-.25.07-.49.11-.73.11h-1.94l10.92-27.93c.21-.52.52-.93.92-1.21.4-.28.88-.42,1.44-.42h1.96l-10.82,27.83Z"></path>
        <path class="cls-3" d="m103.65,195.93v-3.29c0-.25.06-.48.19-.68.12-.21.33-.38.62-.53l6.79-3.5c.55-.27,1.19-.5,1.93-.67-.36-.09-.7-.18-1.02-.29-.32-.11-.62-.23-.91-.38l-6.79-3.48c-.29-.15-.49-.33-.62-.53-.12-.21-.19-.43-.19-.68v-3.29l14.8,7.72v1.87l-14.8,7.74Z"></path>
      </g>
      <circle class="cls-4" cx="217.61" cy="94.23" r="45.05"></circle>
      <polygon class="cls-9" points="207.36 116.21 190.3 99.15 196.7 92.76 207.36 103.42 238.53 72.26 244.92 78.65 207.36 116.21"></polygon>
    </g>
  </g>
</svg>
