<?xml version="1.0" encoding="UTF-8"?><svg id="Layer_2" xmlns="http://www.w3.org/2000/svg" width="75.57" height="85.79" viewBox="0 0 75.57 85.79"><defs><style>.cls-1{fill:#fff;}.cls-2{fill:#b5d7ff;}.cls-3{fill:#de1b29;}.cls-4{fill:#404040;}</style></defs><g id="Layer_1-2"><g><g><path class="cls-1" d="M3.85,54.53l4.69,27.4c8.04-1.45,58.15-10.27,61.71-10.43,.21-.05,2-.47,2-3.4s-2.98-3.56-3.1-3.59c-.4-.05-.69-.39-.7-.78-.01-.39,.26-.75,.65-.82,.13-.03,3.01-.68,3.01-3.5s-2.87-3.48-2.99-3.51c-.39-.07-.66-.43-.65-.82,.02-.4,.31-.73,.7-.8,.13-.02,3.03-.51,3.03-3.44s-2.92-3.5-3.05-3.51c-.38-.07-.67-.41-.68-.8,0-.4,.27-.74,.66-.83,.12-.02,2.99-.66,2.99-3.54,0-3.05-1.83-3.38-2.62-3.38-.16,0-.31,.01-.46,.03l-14.56,2.33s-.08,0-.13,0c-.33,0-.63-.21-.76-.52-.14-.36-.01-.77,.3-.99,.03-.02,3.14-2.25,3.14-10.3,0-6.36-2.88-9.21-5.74-9.21-.62,0-1.21,.14-1.75,.41-.6,.3-.62,.9-.53,2.69,.17,3.74,.48,10-8.79,19.28-8.11,8.1-30.68,11.19-36.38,12.01h0Z"/><path class="cls-2" d="M69.15,64.51c-.4-.05-.69-.39-.7-.78-.01-.39,.26-.75,.65-.82,.13-.03,3.01-.68,3.01-3.5s-2.87-3.48-2.99-3.51c-.39-.07-.66-.43-.65-.82,.02-.4,.31-.73,.7-.8,.13-.02,3.03-.51,3.03-3.44s-2.92-3.5-3.05-3.51c-.38-.07-.67-.41-.68-.8,0-.4,.27-.74,.66-.83,.12-.02,2.99-.66,2.99-3.54,0-3.05-1.83-3.38-2.62-3.38-.16,0-.31,.01-.46,.03l-9.27,1.49c.45,.52,.81,1.23,.81,2.24,0,2.93-2.91,3.43-3.03,3.44-.39,.07-.68,.4-.7,.8,0,.39,.27,.74,.66,.81,.13,.03,2.99,.69,2.99,3.51s-2.88,3.47-3.01,3.5c-.39,.07-.66,.42-.65,.82,0,.4,.3,.73,.7,.78,.12,.03,3.1,.54,3.1,3.59s-1.79,3.36-2,3.4c-2.81,.12-34.57,5.64-51.81,8.67l1.72,10.05c8.04-1.45,58.15-10.27,61.71-10.43,.21-.05,2-.47,2-3.4s-2.98-3.56-3.1-3.59Z"/><path class="cls-4" d="M75.44,59.41c0-1.76-.59-3.16-1.46-4.22,.91-1.06,1.55-2.5,1.55-4.34s-.65-3.3-1.58-4.38c.9-1.11,1.5-2.55,1.5-4.3,0-4.63-2.98-6.7-5.94-6.7-.28,0-.58,.02-.89,.06h-.05s-.05,.01-.05,.01l-9.27,1.49c.64-1.91,1.11-4.42,1.11-7.68,0-8.65-4.55-12.53-9.06-12.53-1.14,0-2.24,.26-3.25,.77-2.59,1.27-2.45,3.91-2.35,5.83,.15,3.41,.39,8.54-7.82,16.76-3.28,3.28-11.88,7.85-34.21,11.03l-.28,.04-3.38,.48,.57,3.36,4.69,27.4,.56,3.3,3.3-.59c11.62-2.09,58.06-10.22,61.27-10.38h.27s.29-.07,.29-.07c2.13-.46,4.62-2.48,4.62-6.65,0-1.84-.63-3.33-1.6-4.45,.88-1.07,1.47-2.47,1.47-4.24Zm-5.19,12.09c-3.56,.16-53.67,8.98-61.71,10.43L3.85,54.53c5.7-.81,28.27-3.91,36.38-12.01,9.27-9.28,8.96-15.55,8.79-19.28-.1-1.79-.07-2.4,.53-2.69,.54-.28,1.13-.41,1.75-.41,2.86,0,5.74,2.85,5.74,9.21,0,8.05-3.11,10.29-3.14,10.3-.32,.22-.45,.63-.3,.99,.13,.32,.43,.52,.76,.52,.04,0,.09,0,.13,0l14.56-2.33c.15-.02,.3-.03,.46-.03,.79,0,2.62,.33,2.62,3.38,0,2.88-2.87,3.52-2.99,3.54-.39,.08-.67,.43-.66,.83,0,.39,.3,.73,.68,.8,.13,.02,3.05,.57,3.05,3.51s-2.91,3.43-3.03,3.44c-.39,.07-.68,.4-.7,.8,0,.39,.27,.74,.65,.82,.13,.03,2.99,.69,2.99,3.51s-2.88,3.47-3.01,3.5c-.39,.07-.67,.42-.65,.82,0,.4,.3,.73,.7,.78,.12,.03,3.1,.54,3.1,3.59s-1.79,3.36-2,3.4Z"/></g><rect class="cls-3" x="35.42" y="5.62" width="3" height="12" transform="translate(2.6 29.51) rotate(-45)"/><rect class="cls-3" x="44.34" y=".32" width="3" height="12" transform="translate(-.07 12.08) rotate(-15)"/><rect class="cls-3" x="50.21" y="4.68" width="12" height="3" transform="translate(35.67 58.87) rotate(-74.98)"/><rect class="cls-3" x="59.26" y="9.76" width="12" height="3" transform="translate(11.15 49.44) rotate(-45)"/></g></g></svg>