<?xml version="1.0" encoding="utf-8"?>
<!-- Generator: Adobe Illustrator 19.0.0, SVG Export Plug-In . SVG Version: 6.00 Build 0)  -->
<svg version="1.1" id="Layer_1" xmlns="http://www.w3.org/2000/svg" xmlns:xlink="http://www.w3.org/1999/xlink" x="0px" y="0px"
	 viewBox="-948 530.5 21.5 21.5" style="enable-background:new -948 530.5 21.5 21.5;" xml:space="preserve">
<style type="text/css">
	.st0{fill:#545454;}
</style>
<g>
	<polygon class="st0" points="-942.7,535.1 -933.3,547.4 -931.9,547.4 -941.1,535.1 	"/>
	<path class="st0" d="M-928.8,530.5h-16.9c-1.3,0-2.3,1-2.3,2.3v16.9c0,1.3,1,2.3,2.3,2.3h16.9c1.3,0,2.3-1,2.3-2.3v-16.9
		C-926.5,531.6-927.6,530.5-928.8,530.5z M-934.5,548.4l-3.7-4.9l-4.2,4.9h-2.8l5.6-6.6l-5.6-7.5h4.9l3.4,4.4l3.7-4.4h2.8l-5.3,6.2
		l6.1,8H-934.5z"/>
</g>
</svg>
