<?xml version="1.0" encoding="UTF-8"?><svg id="Layer_2" xmlns="http://www.w3.org/2000/svg" width="76.63" height="57.14" viewBox="0 0 76.63 57.14"><defs><style>.cls-1{fill:#fff;}.cls-2{fill:#b5d7ff;}.cls-3{fill:#de1b29;}.cls-4{fill:#404040;}</style></defs><g id="Layer_1-2"><g><g><rect class="cls-1" x="1.56" y="1.56" width="73.51" height="46.95"/><rect class="cls-1" x="15.15" y="48.52" width="46.34" height="7.05"/></g><polygon class="cls-3" points="62.65 41.93 14.3 41.93 62.65 8.65 62.65 41.93"/><polygon class="cls-2" points="14.3 41.93 14.3 8.65 62.65 8.65 14.3 41.93"/><g><path class="cls-4" d="M70.48,50.08H6.15V0H70.48V50.08Zm-61.2-3.13h58.07V3.13H9.28V46.95Z"/><path class="cls-4" d="M63.05,57.14H13.58v-7.05H0V0H76.63V50.08h-13.58v7.05Zm-46.34-3.13H59.92v-7.05h13.58V3.13H3.13V46.95h13.58v7.05Z"/></g><polygon class="cls-4" points="19.24 43.8 12.12 43.8 12.12 36.68 13.69 36.68 13.69 42.23 19.24 42.23 19.24 43.8"/><polygon class="cls-4" points="64.66 13.73 63.1 13.73 63.1 8.18 57.55 8.18 57.55 6.62 64.66 6.62 64.66 13.73"/><rect class="cls-4" x="7.3" y="24.43" width="62.18" height="1.56" transform="translate(-7.52 26.5) rotate(-34.9)"/></g></g></svg>